<?xml version="1.0" encoding="UTF-8"?><svg xmlns="http://www.w3.org/2000/svg" viewBox="0 0 1920 200"><g id="DesignDone"><path d="M46.7,21.82c36.33,0,52.93,12.45,52.93,74.31,0,64.97-14.74,81.37-53.56,81.37H0c.41-21.59.62-44.63.62-77.63S.41,41.75,0,21.82h46.7ZM64.97,98c0-41.52-6.02-45.87-20.14-45.87-3.32,0-6.43,0-9.55.21-.41,14.12-.41,31.55-.41,47.74,0,20.34,0,34.25.21,44.84,3.11.21,6.02.21,9.34.21,14.74,0,20.55-4.98,20.55-47.12ZM195.53,21.82c-.21,3.74-.21,10.38-.21,15.57,0,5.6,0,13.08.21,17.02-16.81-.21-33.42-.41-46.71-.41v29.48c15.98,0,31.76,0,45.25-.42,0,6.64-.21,22,0,29.48-13.28-.42-29.27-.62-45.25-.62v30.93c13.49,0,30.72-.21,46.71-.41-.21,4.36-.21,11.83-.21,18.06,0,5.4,0,12.66.21,17.02h-81.58c.62-20.76.62-44.63.62-77.84s0-58.33-.62-77.84h81.58ZM239.74,132.88c0,14.12,3.32,18.68,14.11,18.68s13.7-4.36,13.7-13.49c0-11.62-3.94-19.93-20.55-25.95-29.89-11-38.19-25.74-38.19-51.48s14.53-41.1,45.67-41.1c34.25,0,45.46,12.87,45.46,40.48,0,4.36-.21,8.93-.41,14.11-4.15-.21-10.59-.41-16.4-.41-5.19,0-9.96,0-13.08.21.21-3.94.21-7.47.21-11.21,0-10.17-3.32-15.15-14.11-15.15-9.55,0-13.08,4.57-13.08,12.87-.21,10.17,2.49,18.06,20.55,25.12,25.95,10.17,37.36,24.29,37.36,51.48s-12.87,42.76-45.46,42.76c-35.5,0-47.12-14.53-47.12-41.1,0-5.6.21-9.96.62-14.74,4.36.41,10.59.83,17.23.83,5.19,0,9.96,0,13.49-.41v8.51ZM315.08,177.51c.41-21.17.41-44.84.41-77.84s0-56.88-.41-77.84h36.12c-.42,20.76-.42,44.42-.42,77.63s0,56.67.42,78.05h-36.12ZM415.75,118.35c.21-2.7.21-9.13.21-12.45,0-5.19,0-9.96-.21-13.28,7.89.21,15.98.21,22,.21,7.47,0,17.44,0,27.4-.41,2.49,61.86-4.77,87.18-47.54,87.18-36.74,0-51.89-23.46-51.89-81.79-.21-57.91,15.78-78.05,52.72-78.05s47.54,17.85,47.54,47.54c0,3.53,0,7.06-.41,11-4.36-.21-10.59-.41-17.02-.41s-12.66.21-17.02.41c.21-3.11.21-6.02.21-8.3,0-15.78-4.77-20.97-13.49-20.97-12.04,0-17.64,8.72-17.64,48.99s4.77,51.27,18.27,51.27c10.59,0,14.12-7.06,14.32-31.14l-17.44.21ZM582.23,21.82c-.21,12.45-.62,44.63-.62,77.63,0,34.67,0,58.12.42,78.05h-36.12c-4.36-14.12-14.74-42.55-24.29-66.42-4.15-13.28-7.27-27.19-9.96-41.1h-.41c1.04,16.61,1.66,31.34,1.87,44.63.21,32.38.41,54.18.62,62.9h-30.72c0-20.55.21-44.63.21-77.84s0-57.71-.21-77.84h40.06c2.7,10.59,14.53,41.52,23.46,69.33,3.32,9.96,6.02,22,8.3,34.25l.21-.21c-1.04-14.12-1.66-27.4-1.87-39.85,0-21.59-.62-49.2-1.25-63.52h30.31ZM683.1,21.82c36.33,0,52.93,12.45,52.93,74.31,0,64.97-14.74,81.37-53.56,81.37h-46.08c.41-21.59.62-44.63.62-77.63s-.21-58.12-.62-78.05h46.7ZM701.37,98c0-41.52-6.02-45.87-20.14-45.87-3.32,0-6.43,0-9.55.21-.41,14.12-.41,31.55-.41,47.74,0,20.34,0,34.25.21,44.84,3.11.21,6.02.21,9.34.21,14.74,0,20.55-4.98,20.55-47.12ZM798.92,179.79c-34.67,0-52.31-22.83-52.31-83.24s19.51-77.01,52.31-77.01,52.93,17.44,52.93,77.01-18.27,83.24-52.93,83.24ZM816.15,97.17c0-37.16-6.02-46.29-17.02-46.29s-17.23,8.93-17.23,46.29,6.02,49.2,17.23,49.2,17.02-10.79,17.02-49.2ZM966.02,21.82c-.21,12.45-.62,44.63-.62,77.63,0,34.67,0,58.12.42,78.05h-36.12c-4.36-14.12-14.74-42.55-24.29-66.42-4.15-13.28-7.27-27.19-9.96-41.1h-.41c1.04,16.61,1.66,31.34,1.87,44.63.21,32.38.41,54.18.62,62.9h-30.72c0-20.55.21-44.63.21-77.84s0-57.71-.21-77.84h40.06c2.7,10.59,14.53,41.52,23.46,69.33,3.32,9.96,6.02,22,8.3,34.25l.21-.21c-1.04-14.12-1.66-27.4-1.87-39.85,0-21.59-.62-49.2-1.25-63.52h30.31ZM1065.85,21.82c-.21,3.74-.21,10.38-.21,15.57,0,5.6,0,13.08.21,17.02-16.81-.21-33.42-.41-46.7-.41v29.48c15.98,0,31.76,0,45.25-.42,0,6.64-.21,22,0,29.48-13.28-.42-29.27-.62-45.25-.62v30.93c13.49,0,30.72-.21,46.7-.41-.21,4.36-.21,11.83-.21,18.06,0,5.4,0,12.66.21,17.02h-81.58c.62-20.76.62-44.63.62-77.84s0-58.33-.62-77.84h81.58ZM1798.33,144.48l1.84-28.53-23.88,16-9.88-17.4,25.72-12.53-25.72-12.53,9.88-17.4,23.88,16-1.84-28.53h19.83l-1.92,28.53,23.88-16,9.88,17.4-25.65,12.53,25.65,12.53-9.88,17.4-23.88-16,1.92,28.53h-19.83Z" style="fill:currentfill;"/></g><g id="Better"><path d="M1195.58,21.82c26.78,0,38.19,14.53,31.14,43.18-4.57,17.44-9.76,25.12-19.93,30.1-3.32,1.66-7.47,2.49-12.04,3.32l-.42,1.25c3.32.41,6.02,1.04,8.1,2.08,10.59,4.57,12.25,17.44,7.47,36.53-7.06,28.85-19.72,39.23-46.5,39.23h-61.24c6.23-21.59,12.04-44.84,20.14-77.84,8.3-33,14.32-56.88,18.68-77.84h54.59ZM1167.98,108.8c-4.15,0-9.13.21-14.32.41-3.32,13.28-6.85,28.23-9.76,40.48,5.19.41,9.96.41,13.91.41,10.8,0,15.98-3.32,19.93-18.89,4.36-17.44.62-22.42-9.76-22.42ZM1183.13,47.35c-4.57,0-9.13,0-13.91.41-3.11,11.21-6.85,26.15-10.38,39.85,5.4.41,10.38.21,14.74.21,9.55-.21,15.15-5.6,18.89-19.72,4.15-17.02-.41-20.76-9.34-20.76ZM1335.48,21.82c-1.25,3.74-2.91,10.38-4.15,15.36-1.25,5.81-3.11,13.28-4.15,17.23-16.4-.21-33-.41-46.5-.41l-7.26,29.68c15.98,0,31.76-.21,45.46-.62-1.87,6.85-5.81,22-7.47,29.48-13.08-.42-29.06-.62-45.04-.62l-7.89,30.93c13.7,0,30.93-.21,46.91-.21-1.25,4.15-3.11,11.62-4.77,17.64-1.25,5.6-3.11,12.87-3.94,17.23h-81.37c5.4-20.76,11.62-44.63,19.72-77.84,8.3-33,14.53-58.12,19.1-77.84h81.37ZM1426.4,21.82c-1.25,4.57-2.91,11.42-4.57,17.85-1.45,6.02-3.32,13.7-4.36,18.68-7.68-.21-15.36-.41-22.63-.41-12.04,48.78-26.57,108.15-29.06,119.77-4.98-.42-13.08-.42-18.68-.42s-13.28,0-18.47.42c3.32-11.42,18.27-70.78,30.51-119.77-7.06,0-14.94.21-22.83.41,1.45-4.98,3.32-12.66,4.77-18.68,1.66-6.43,3.53-13.28,4.36-17.85h80.96ZM1512.74,21.82c-1.25,4.57-2.91,11.42-4.57,17.85-1.45,6.02-3.32,13.7-4.36,18.68-7.68-.21-15.36-.41-22.63-.41-12.04,48.78-26.57,108.15-29.06,119.77-4.98-.42-13.08-.42-18.68-.42s-13.28,0-18.47.42c3.32-11.42,18.27-70.78,30.51-119.77-7.06,0-14.94.21-22.83.41,1.45-4.98,3.32-12.66,4.77-18.68,1.66-6.43,3.53-13.28,4.36-17.85h80.96ZM1606.15,21.82c-1.25,3.74-2.91,10.38-4.15,15.36-1.25,5.81-3.11,13.28-4.15,17.23-16.4-.21-33-.41-46.5-.41l-7.26,29.68c15.98,0,31.76-.21,45.46-.62-1.87,6.85-5.81,22-7.47,29.48-13.08-.42-29.06-.62-45.04-.62l-7.89,30.93c13.7,0,30.93-.21,46.91-.21-1.25,4.15-3.11,11.62-4.77,17.64-1.25,5.6-3.11,12.87-3.94,17.23h-81.37c5.4-20.76,11.62-44.63,19.72-77.84,8.3-33,14.53-58.12,19.1-77.84h81.37ZM1672.98,21.82c28.23,0,41.93,15.36,33,50.65-6.64,27.4-17.02,39.02-36.74,42.35l-.21,1.04c13.49,2.49,17.44,8.93,16.81,28.44-.21,11.62-1.04,25.74-1.25,33.21h-29.89c-5.19,0-5.6-2.28-6.02-12.87,3.53-34.87,2.28-39.65-7.47-39.65-4.36,0-5.19,0-10.17.21-4.98,21.17-8.93,39.44-11.21,52.31h-35.91c5.81-22.42,11.62-44.63,19.93-77.84,8.3-33,13.7-55.42,18.89-77.84h50.23ZM1660.11,49.84c-2.08,0-6.43.21-10.59.42-4.15,16.81-8.3,33.42-12.25,49.2,3.32,0,8.3,0,14.11.21,9.34,0,15.78-6.64,19.93-23.04,5.4-21.8.62-26.78-11.21-26.78Z" style="fill:currentfill;"/></g></svg>