<?xml version="1.0" encoding="UTF-8"?><svg xmlns="http://www.w3.org/2000/svg" viewBox="0 0 1080 540"><g id="Design"><path d="M235.15,158.05c0,9.11-1.07,19.56-6.43,50.63-12.06,68.04-41.52,92.69-112.51,92.69H27l38.31-218.33h84.65c57.86,0,85.19,25.99,85.19,75.01ZM181.3,162.61c0-23.84-12.05-32.41-39.11-32.41h-31.61l-21.7,124.03h35.09c31.34,0,44.74-9.91,52.24-52.51,4.29-24.38,5.09-32.15,5.09-39.11ZM365.61,301.37h-143.85l38.31-218.33h144.12l-8.84,49.83h-90.54l-5.89,32.68h85.46l-8.3,46.08h-85.19l-6.97,39.92h90.55l-8.84,49.83ZM398.02,140.37c7.23-40.45,45.81-58.67,102.6-58.67s83.31,20.09,83.31,57.6c0,4.82-.54,10.72-2.14,19.29h-53.58c1.07-5.63,1.34-8.04,1.34-10.18,0-15-10.98-21.7-36.43-21.7s-40.18,6.96-42.33,18.48c-.54,4.02-.54,4.29-.54,5.36,0,9.38,9.11,14.47,50.63,20.89,46.88,7.5,67.77,22.23,67.77,54.11,0,4.82-.53,10.18-1.87,17.68-6.97,40.45-39.65,59.47-98.85,59.47s-86.53-17.41-86.53-58.4c0-5.36.27-11.52,1.88-20.09h53.58c-.8,5.89-1.07,9.38-1.07,12.32,0,16.07,9.38,22.23,36.7,22.23,25.72,0,39.65-6.7,41.79-19.02.8-4.02.8-5.09.8-6.7,0-10.18-9.91-14.47-52.24-21.16-48.76-7.5-66.44-24.65-66.44-53.85,0-4.82.27-10.18,1.61-17.68ZM603.76,83.05h53.58l-38.31,218.33h-53.58l38.31-218.33ZM783.51,218.33h-43.93l6.7-36.7h97.78l-21.16,119.74h-20.63l-4.02-38.58c-11.79,28.93-38.58,39.92-73.94,39.92-54.92,0-81.97-25.18-81.97-70.72,0-8.04.8-16.61,7.77-55.99,11.25-62.95,42.86-94.3,109.03-94.3,59.2,0,89.74,21.7,89.74,63.76,0,5.36-.54,11.25-2.14,21.43h-53.84c1.34-6.7,1.61-9.64,1.61-12.32,0-17.41-13.13-24.91-39.38-24.91-32.15,0-45.27,11.52-52.24,50.9-5.62,31.07-6.16,36.97-6.16,42.33,0,23.31,12.59,31.88,40.45,31.88,24.38,0,40.99-5.63,46.08-34.56l.27-1.88ZM907.8,160.2l-24.91,141.18h-49.83l38.31-218.33h56.52l51.7,133.41,23.57-133.41h49.83l-38.58,218.33h-54.38l-52.24-141.18Z" style="fill:currentfill;"/></g><g id="Done"><path d="M142.45,394.11c0,5.12-.6,10.98-3.61,28.43-6.77,38.21-23.31,52.04-63.17,52.04H25.58l21.51-122.59h47.53c32.49,0,47.83,14.59,47.83,42.12ZM112.22,396.67c0-13.39-6.77-18.2-21.96-18.2h-17.75l-12.18,69.64h19.7c17.6,0,25.12-5.56,29.33-29.48,2.41-13.69,2.86-18.05,2.86-21.96ZM142.15,434.27c0-4.06.45-8.42,4.21-30.08,6.32-35.8,24.22-52.95,61.22-52.95,32.49,0,49.49,14.59,49.49,40.91,0,4.21-.45,8.42-4.21,30.23-6.32,35.95-24.22,52.95-61.22,52.95-32.49,0-49.49-14.59-49.49-41.06ZM223.22,419.83c3.01-17.45,3.46-20.76,3.46-23.77,0-13.09-7.07-17.9-22.71-17.9s-24.07,6.77-27.98,28.58c-3.01,17.6-3.46,20.61-3.46,23.77,0,13.09,7.07,17.9,22.71,17.9s24.07-6.77,27.98-28.58ZM290.76,395.31l-13.99,79.27h-27.98l21.51-122.59h31.74l29.03,74.91,13.24-74.91h27.98l-21.66,122.59h-30.53l-29.33-79.27ZM437.56,474.58h-80.77l21.51-122.59h80.92l-4.96,27.98h-50.84l-3.31,18.35h47.98l-4.66,25.87h-47.83l-3.91,22.41h50.84l-4.96,27.98Z" style="fill:currentfill;"/></g><g id="Better"><path d="M584.22,375.91c0,1.96-.15,3.76-1.5,11.43-2.26,12.94-9.78,18.95-26.62,20.31,18.5,2.11,25.27,11.13,25.27,23.01,0,2.11-.15,4.06-1.8,13.39-3.46,19.86-17.6,30.54-52.5,30.54h-49.79l21.51-122.59h49.64c24.82,0,35.8,9.02,35.8,23.92ZM516.68,421.03l-5.57,31.29h20.01c12.64,0,17.15-2.26,19.1-13.99.9-4.96,1.2-6.32,1.2-7.67,0-6.92-4.51-9.63-14.74-9.63h-20.01ZM553.23,382.53c0-6.02-3.61-8.27-11.58-8.27h-16.7l-4.66,26.02h17.15c10.68,0,13.39-1.96,14.89-10.53.9-5.11.9-6.02.9-7.22ZM659.43,474.58h-80.77l21.51-122.59h80.92l-4.97,27.98h-50.84l-3.31,18.35h47.98l-4.66,25.87h-47.83l-3.91,22.41h50.84l-4.96,27.98ZM741.56,382.08l-16.25,92.51h-30.08l16.24-92.51h-30.84l5.26-30.08h91.76l-5.26,30.08h-30.83ZM837.53,382.08l-16.25,92.51h-30.08l16.24-92.51h-30.84l5.26-30.08h91.76l-5.26,30.08h-30.83ZM938.15,474.58h-80.78l21.51-122.59h80.92l-4.96,27.98h-50.84l-3.31,18.35h47.98l-4.66,25.87h-47.83l-3.91,22.41h50.84l-4.96,27.98ZM1000.88,429.01h-18.95l-7.97,45.58h-30.08l21.51-122.59h48.58c28.58,0,40.46,10.23,40.46,29.78,0,3.46-.3,7.07-1.66,14.59-3.01,16.7-11.43,25.72-24.22,29.78l12.64,48.43h-29.48l-10.83-45.58ZM990.8,378.47l-4.81,27.68h19.25c11.28,0,15.94-1.5,17.75-11.28.75-4.21.9-5.87.9-7.22,0-6.47-4.06-9.18-13.99-9.18h-19.1Z" style="fill:currentfill;"/></g></svg>