<?xml version="1.0" encoding="UTF-8"?><svg xmlns="http://www.w3.org/2000/svg" viewBox="0 0 1080 800"><g id="Design"><path d="M243.42,106.93c0,8.86-1.04,19.03-6.26,49.26-11.73,66.2-40.4,90.18-109.46,90.18H40.92L78.19,33.96h82.36c56.3,0,82.88,25.28,82.88,72.98ZM191.04,111.36c0-23.2-11.73-31.54-38.05-31.54h-30.75l-21.11,120.67h34.14c30.49,0,43.52-9.64,50.82-51.08,4.17-23.72,4.95-31.28,4.95-38.05ZM370.34,246.37h-139.96l37.27-212.41h140.22l-8.6,48.48h-88.09l-5.73,31.8h83.14l-8.08,44.83h-82.88l-6.78,38.83h88.09l-8.6,48.48ZM401.87,89.73c7.04-39.35,44.57-57.08,99.82-57.08s81.06,19.55,81.06,56.03c0,4.69-.52,10.42-2.09,18.76h-52.13c1.04-5.47,1.3-7.82,1.3-9.9,0-14.59-10.69-21.11-35.45-21.11s-39.09,6.78-41.18,17.98c-.52,3.91-.52,4.17-.52,5.21,0,9.12,8.86,14.07,49.26,20.33,45.61,7.3,65.94,21.63,65.94,52.65,0,4.69-.52,9.9-1.82,17.2-6.78,39.35-38.57,57.86-96.17,57.86s-84.18-16.94-84.18-56.82c0-5.21.26-11.21,1.82-19.55h52.13c-.78,5.73-1.04,9.12-1.04,11.99,0,15.64,9.12,21.63,35.71,21.63,25.02,0,38.57-6.52,40.66-18.5.78-3.91.78-4.95.78-6.52,0-9.9-9.64-14.07-50.82-20.59-47.43-7.3-64.64-23.98-64.64-52.39,0-4.69.26-9.9,1.56-17.2ZM602.03,33.96h52.12l-37.27,212.41h-52.13l37.27-212.41ZM776.9,165.57h-42.74l6.52-35.71h95.13l-20.59,116.5h-20.07l-3.91-37.53c-11.47,28.15-37.53,38.83-71.93,38.83-53.43,0-79.75-24.5-79.75-68.81,0-7.82.78-16.16,7.56-54.47,10.95-61.25,41.7-91.74,106.08-91.74,57.6,0,87.31,21.11,87.31,62.03,0,5.21-.52,10.95-2.09,20.85h-52.39c1.3-6.52,1.56-9.38,1.56-11.99,0-16.94-12.77-24.24-38.31-24.24-31.27,0-44.05,11.21-50.82,49.52-5.47,30.23-5.99,35.97-5.99,41.18,0,22.67,12.25,31.01,39.35,31.01,23.72,0,39.88-5.47,44.83-33.62l.26-1.82ZM897.83,109.02l-24.24,137.35h-48.48l37.27-212.41h54.99l50.3,129.79,22.94-129.79h48.48l-37.53,212.41h-52.91l-50.82-137.35Z" style="fill:currentfill;"/></g><g id="Done"><path d="M345.59,366.1c0,8.86-1.04,19.03-6.26,49.26-11.73,66.2-40.4,90.18-109.46,90.18h-86.79l37.27-212.41h82.36c56.3,0,82.88,25.28,82.88,72.98ZM293.2,370.53c0-23.2-11.73-31.54-38.05-31.54h-30.75l-21.11,120.67h34.14c30.49,0,43.52-9.64,50.82-51.08,4.17-23.72,4.95-31.28,4.95-38.05ZM345.06,435.69c0-7.04.78-14.6,7.3-52.13,10.95-62.03,41.96-91.74,106.08-91.74,56.29,0,85.75,25.28,85.75,70.89,0,7.3-.78,14.6-7.3,52.39-10.95,62.29-41.96,91.74-106.08,91.74-56.3,0-85.75-25.28-85.75-71.15ZM485.54,410.67c5.21-30.23,5.99-35.97,5.99-41.18,0-22.67-12.25-31.01-39.35-31.01s-41.7,11.73-48.48,49.52c-5.21,30.49-5.99,35.71-5.99,41.18,0,22.67,12.25,31.02,39.35,31.02s41.7-11.73,48.48-49.52ZM602.55,368.19l-24.24,137.35h-48.48l37.27-212.41h54.99l50.3,129.79,22.94-129.79h48.48l-37.53,212.41h-52.91l-50.82-137.35ZM856.91,505.54h-139.96l37.27-212.41h140.22l-8.6,48.48h-88.09l-5.73,31.8h83.14l-8.08,44.83h-82.88l-6.78,38.83h88.09l-8.6,48.48Z" style="fill:currentfill;"/></g><g id="Better"><path d="M225.31,593.74c0,3.39-.26,6.51-2.61,19.81-3.91,22.41-16.94,32.84-46.13,35.18,32.06,3.65,43.79,19.29,43.79,39.88,0,3.65-.26,7.04-3.13,23.2-5.99,34.4-30.49,52.91-90.96,52.91H40l37.27-212.41h86.01c43,0,62.03,15.64,62.03,41.44ZM108.29,671.92l-9.64,54.21h34.66c21.89,0,29.71-3.91,33.1-24.24,1.56-8.6,2.08-10.95,2.08-13.29,0-11.99-7.82-16.68-25.54-16.68h-34.66ZM171.62,605.2c0-10.42-6.26-14.34-20.07-14.34h-28.93l-8.08,45.09h29.71c18.5,0,23.2-3.39,25.8-18.24,1.56-8.86,1.56-10.42,1.56-12.51ZM355.62,764.71h-139.96l37.27-212.41h140.22l-8.6,48.48h-88.09l-5.73,31.8h83.14l-8.08,44.83h-82.88l-6.78,38.83h88.09l-8.6,48.48ZM497.91,604.42l-28.15,160.29h-52.13l28.15-160.29h-53.43l9.12-52.12h158.98l-9.12,52.12h-53.43ZM664.19,604.42l-28.15,160.29h-52.13l28.15-160.29h-53.43l9.12-52.12h158.98l-9.12,52.12h-53.43ZM838.54,764.71h-139.96l37.27-212.41h140.22l-8.6,48.48h-88.09l-5.73,31.8h83.14l-8.08,44.83h-82.88l-6.78,38.83h88.09l-8.6,48.48ZM947.22,685.74h-32.84l-13.81,78.97h-52.13l37.27-212.41h84.18c49.52,0,70.11,17.72,70.11,51.6,0,5.99-.52,12.25-2.87,25.28-5.21,28.93-19.81,44.57-41.96,51.6l21.89,83.92h-51.08l-18.77-78.97ZM929.76,598.17l-8.34,47.95h33.36c19.55,0,27.63-2.61,30.75-19.55,1.3-7.3,1.56-10.16,1.56-12.51,0-11.21-7.04-15.9-24.24-15.9h-33.1Z" style="fill:currentfill;"/></g></svg>