<?xml version="1.0" encoding="UTF-8"?><svg id="Designer_FILL" xmlns="http://www.w3.org/2000/svg" viewBox="0 0 1985.94 486.07"><path d="m133.59,480.7H0L83.92,4.77h122.86c50.69,0,75.32,12.52,90.73,43.54,13.76,26.84,2.12,109.74-11.02,184.29-17.35,98.41-33.16,171.17-57.23,202.78-20.24,26.84-46.76,45.33-95.66,45.33Zm69.39-248.11c4.21-23.86,17.56-109.74,16.23-125.84-1.3-19.68-10.56-28.03-27.86-28.03h-34.59l-58.79,333.39h38.17c15.51,0,26.91-7.16,34.13-24.45,7.54-19.09,28.4-130.61,32.71-155.07Zm68.97,248.11L355.88,4.77h209.93l-14.41,81.71h-122.86l-20.4,115.7h114.51l-13.67,77.53h-114.51l-21.24,120.47h124.05l-14.2,80.52h-211.13Zm347.94,5.37c-75.15,0-110.23-31.01-105.05-84.09,2.1-22.07,3.75-28.03,8.8-56.66h82.9c-3.89,22.07-6.24,38.77-6.27,42.35-.35,15.51,8.49,26.24,29.96,26.24,23.26,0,38.1-13.12,42.3-36.98,7.05-39.96-1.2-60.83-30.81-92.44-5.02-5.37-25.58-27.43-36.21-38.17-36.32-37.57-53.62-67.99-42.26-132.4C575.46,44.73,628.67,0,703.82,0s100.97,42.94,97.96,97.21c0,10.14-2.63,35.19-5.04,48.91h-83.5c2.1-11.93,3.51-23.26,4.45-38.77.98-19.08-5.27-31.01-27.93-31.01s-36.48,10.74-40.9,35.78c-5.78,32.8,10.39,56.06,32.92,80.52,10.04,10.73,29.12,31.01,36.6,39.36,35.79,40.55,52.67,73.36,41.42,137.17-13.04,73.95-68.33,116.9-139.89,116.9Zm147.06-5.37L850.88,4.77h90.65l-83.92,475.93h-90.65Zm308.34,0l-.39-21.47c-14.66,15.51-40.9,25.65-77.28,25.65-50.1,0-82.83-27.43-86.1-79.92-2.57-42.94,7.42-109.74,16.47-161.03,8.73-49.5,22.05-121.67,40.64-162.82C984.9,42.94,1024.58.6,1099.72.6s102.13,36.38,101.72,79.32c-.21,21.47-2.62,45.33-10.09,87.67h-85.29c.63-3.58,6.42-36.38,8.34-60.83,1.58-19.08-7.97-29.22-26.46-29.22-16.7,0-31.4,8.95-37.96,29.22-13.22,41.15-23.91,98.41-30.75,137.17-6.42,36.38-17.35,98.41-16.82,135.98.39,21.47,8.74,31.61,28.42,31.61,22.07,0,37.99-12.52,44.09-36.98,1.79-10.14,15.46-87.67,15.46-87.67h-48.31l13.25-75.15h130.61s-22.61,128.23-27.87,158.05c-9.67,54.87-18.26,110.33-18.37,110.93h-64.41Zm248.7,0l-33.29-237.37-41.86,237.37h-81.11L1251.67,4.77h82.9l33.54,232.6,41.01-232.6h81.11l-83.92,475.93h-82.3Zm119.28,0L1527.2,4.77h209.93l-14.41,81.71h-122.86l-20.4,115.7h114.51l-13.67,77.53h-114.51l-21.24,120.47h124.05l-14.2,80.52h-211.13Zm511.81-257.65c-11.01,18.49-25.85,31.61-38.52,35.79l18.73,221.86h-90.06l-12.8-198.01h-31.01l-34.91,198.01h-86.48L1763.97,4.77h143.14c36.38,0,64.76,14.91,73.54,42.94,6.67,19.68,7.45,52.48-.02,94.83-6.62,37.57-15.92,63.22-25.53,80.51Zm-58.22-116.3c-.67-13.12-6.74-22.66-21.05-22.66h-39.36l-22.08,125.25s38.77,0,41.85-.6c11.54-1.19,19.05-6.56,22.91-14.91,5.05-8.35,9.82-28.63,12.34-42.94,2.84-16.1,5.54-38.17,5.4-44.13Z" style="fill:currentfill;"/></svg>