<?xml version="1.0" encoding="UTF-8"?><svg id="Layer_2" xmlns="http://www.w3.org/2000/svg" viewBox="0 0 85 85"><g id="Layer_1-2"><path d="m42.5,7.66c11.35,0,12.69.04,17.17.25,4.14.19,6.39.88,7.89,1.46,1.98.77,3.4,1.69,4.89,3.18,1.49,1.49,2.41,2.9,3.18,4.89.58,1.5,1.27,3.75,1.46,7.89.2,4.48.25,5.83.25,17.17s-.04,12.69-.25,17.17c-.19,4.14-.88,6.39-1.46,7.89-.77,1.98-1.69,3.4-3.18,4.89-1.49,1.49-2.9,2.41-4.89,3.18-1.5.58-3.75,1.27-7.89,1.46-4.48.2-5.82.25-17.17.25s-12.69-.04-17.17-.25c-4.14-.19-6.39-.88-7.89-1.46-1.98-.77-3.4-1.69-4.89-3.18-1.49-1.49-2.41-2.9-3.18-4.89-.58-1.5-1.27-3.75-1.46-7.89-.2-4.48-.25-5.83-.25-17.17s.04-12.69.25-17.17c.19-4.14.88-6.39,1.46-7.89.77-1.98,1.69-3.4,3.18-4.89,1.49-1.49,2.9-2.41,4.89-3.18,1.5-.58,3.75-1.27,7.89-1.46,4.48-.2,5.83-.25,17.17-.25m0-7.66c-11.54,0-12.99.05-17.52.26-4.52.21-7.61.92-10.32,1.98-2.79,1.09-5.16,2.54-7.53,4.9-2.36,2.36-3.82,4.73-4.9,7.53-1.05,2.7-1.77,5.79-1.98,10.32-.21,4.53-.26,5.98-.26,17.52s.05,12.99.26,17.52c.21,4.52.92,7.61,1.98,10.32,1.09,2.79,2.54,5.16,4.9,7.53,2.36,2.36,4.73,3.82,7.53,4.9,2.7,1.05,5.79,1.77,10.32,1.98,4.53.21,5.98.26,17.52.26s12.99-.05,17.52-.26c4.52-.21,7.61-.92,10.32-1.98,2.79-1.09,5.16-2.54,7.53-4.9,2.36-2.36,3.82-4.73,4.9-7.53,1.05-2.7,1.77-5.79,1.98-10.32.21-4.53.26-5.98.26-17.52s-.05-12.99-.26-17.52c-.21-4.52-.92-7.61-1.98-10.32-1.09-2.79-2.54-5.16-4.9-7.53-2.36-2.36-4.73-3.82-7.53-4.9-2.7-1.05-5.79-1.77-10.32-1.98-4.53-.21-5.98-.26-17.52-.26h0Zm0,20.68c-12.05,0-21.82,9.77-21.82,21.82s9.77,21.82,21.82,21.82,21.82-9.77,21.82-21.82-9.77-21.82-21.82-21.82Zm0,35.99c-7.82,0-14.17-6.34-14.17-14.17s6.34-14.17,14.17-14.17,14.17,6.34,14.17,14.17-6.34,14.17-14.17,14.17Zm22.69-41.95c-2.82,0-5.1,2.28-5.1,5.1s2.28,5.1,5.1,5.1,5.1-2.28,5.1-5.1-2.28-5.1-5.1-5.1Z" style="fill:currentfill;"/>/></g></svg>