<?xml version="1.0" encoding="UTF-8"?><svg id="Layer_2" xmlns="http://www.w3.org/2000/svg" viewBox="0 0 80 79.78"><g id="Layer_1-2"><path d="m44.18,33.69c1.11-1.25,2.02-2.51,3.16-3.58,3.5-3.3,7.64-4.96,12.48-4.92,2.66.02,5.28.21,7.84.95,5.86,1.69,9.26,5.73,10.89,11.45,1.22,4.29,1.44,8.7,1.45,13.12.02,9.32-.03,18.65,0,27.97,0,.87-.24,1.1-1.1,1.09-4.8-.04-9.61-.04-14.41,0-.85,0-1.03-.25-1.03-1.05.03-8.87.03-17.74,0-26.62,0-2.22-.15-4.45-.77-6.61-1.15-3.98-4-6.01-8.17-5.79-5.7.3-8.66,3.12-9.38,8.91-.17,1.38-.26,2.77-.25,4.16,0,8.63,0,17.26.02,25.89,0,.86-.21,1.11-1.09,1.11-4.84-.04-9.68-.04-14.52,0-.78,0-1-.2-1-.99.02-17.08.02-34.17,0-51.25,0-.85.28-1.04,1.08-1.04,4.59.03,9.19.04,13.78,0,.85,0,1.06.27,1.05,1.07-.05,2.04-.02,4.08-.02,6.13Zm-26.31-6.04c0-.8-.13-1.17-1.06-1.16-4.87.05-9.74.04-14.61,0-.75,0-.92.25-.92.96.02,17.11.02,34.22,0,51.34,0,.8.23.99,1,.98,4.8-.03,9.6-.05,14.41,0,.97.01,1.21-.27,1.2-1.21-.03-8.45-.02-16.9-.02-25.35s0-17.04.01-25.56ZM9.61,0C4.32,0-.02,4.34,0,9.63c.02,5.22,4.36,9.55,9.59,9.55,5.29,0,9.6-4.32,9.6-9.63C19.18,4.31,14.85,0,9.61,0Z" style="fill:currentfill;"/></g></svg>