<?xml version="1.0" encoding="UTF-8"?><svg id="Logo" xmlns="http://www.w3.org/2000/svg" viewBox="0 0 550 400"><path d="M408.85,17.14c3.2,10.2,5.9,20.5,8.1,30.9l-78.8,100.3c-10.2-5.6-21-11.6-32.5-17.7-54.4-29.1-94.3-54-119.2-74.3l62.8-11,47.9,71.7,72.5-93s39.2-6.9,39.2-6.9ZM375.15,335.84c-8.2-10.2-17.6-19.3-28-27.1h0c-12.1-9.3-46.6-29.9-102.6-61-12.4-6.9-24-13.5-34.8-19.8l-104.7,133.7c2.1,7.4,4.3,14.3,6.6,20.7l51-9,86-110.1,56.5,84.9,70-12.3ZM453.05,9.34v68.1h-18c-3.1-23.4-7.6-44.2-13.3-62.5,0,0,31.3-5.6,31.3-5.6ZM169.85,59.24c25,22.3,68.2,49.9,129.7,82.8,53.9,28.9,92.9,52,117,69.2,1.4,1,3.1,1.6,4.9,1.6h.9c24.3,0,44.7-7.8,61.2-23.5,16.5-15.7,26.3-38.1,29.2-67.5h22c-1.3,42.3-13.3,75.3-36,99.2-10.3,11-22.6,20-36.3,26.2l-1.3.6c-1.3.6-1.9,2.2-1.3,3.5.1.2.2.4.3.6,7.2,9.2,13.5,19.1,18.8,29.5,5.5,10.8,9.8,22.2,12.9,33.9l-102.2,18c-8.6-12.3-20.1-23.9-34.4-34.9-12.7-9.8-47.4-30.5-104.3-62.1-48.4-26.9-84.9-49.2-109.5-66.9l-1.1-.8c-.9-.6-1.9-1-3-1.1-3.2-.4-6.4-.6-9.6-.6-22.8,0-42,7-57.7,20.9-15.7,13.9-26.9,36.6-33.4,68.1H15.65c1.9-43.7,13.9-77.1,36-100.3,11.9-12.5,25-21.6,39.2-27.4h0c1.4-.6,2.1-2.2,1.5-3.6-.1-.2-.2-.5-.4-.7-6.5-8.1-12.3-16.8-17.3-25.9-3.6-6.5-6.6-13.4-9.2-20.3,0,0,104.4-18.5,104.4-18.5ZM98.65,384.64c-6.8-19.4-12.7-42.8-17.6-70.2h-18v76.5l35.6-6.3Z" style="fill:currentfill;"/></svg>