<?xml version="1.0" encoding="UTF-8"?><svg id="Layer_2" xmlns="http://www.w3.org/2000/svg" viewBox="0 0 629.27 392.82"><g id="Layer_1-2"><path d="m283.87,249.06l-.3-.6c.3.1.3.3.3.6ZM499.27,43.56c.5.3.8-.2.8-.7-.2,0-.5,0-.8-.1.1.3.1.5,0,.8Zm130,106.6c.2,32.8-34.8,47.2-62.9,47.2-.3,0-.7,0-1,.1-4.1.9-7.3,3.9-11.3,3.9-.3,0-.7-.1-1-.1-6-1.3-11.9.7-18.2,1.6-1.8.2-3.7-.2-5.4.5-1,.3-2.1-.2-3.1-.1-.7.1-1.3.7-1.9.8-1.2,0-2-.6-3.2-.4-2.7.6-6,1.1-8.9.9h-.5c-10.2.6-21.1.3-31,.4-5,.3-10.7-.5-15.6-.4-2.9.3-5.9-.5-8.6-.4-.9-.1-2.1-.8-3-.9-15.6-.8-33.6-1.8-46.4-11.4-6.8-5.1-11.7-14-10.5-24.9.3-1,1-1.2,2-1,3.2.9,7.3,2.2,10.6,2.2,1.4-.1,2,.5,3.2,1.3.2.2.4.3.7.4,1.1.5,2.6.7,3.7,1.1.1,0,.3.1.5.1,3.4,1.4,7.1,2.6,10.8,3.1,10.8,1.5,22.4,2.8,33.9,2.2,4.8-.2,9-1.5,14-.2,5.7,1.1,11.4-.1,17.2-.3,3.5-.3,7-.6,10.6-1,33.9-4.5,71.7-3.2,98.9-26.1,1.5-1.2,1.6-3.3,1.1-5.1-1.5-6.2-3.7-8.7-7.6-13.4-.1-.1-.1-.2-.2-.3-1.2-1.6-2.2-3.2-4-4-.6-.4-.6-1.1-1.3-1.8-.7-.7-1.7-1.3-2.6-1.9-5.9-4.1-12.7-7.3-17.5-12.7-1.4-1.2-2.9-.9-4.3-1.7-1.3-.8-2.3-1.7-3.7-2.4-38.7-24-84.9-32.9-127.3-47.8-.6,0,.9,1.1.5,1.2-.3.1-.5,0-.9-.1-26.9-6.4-56.3-8.4-82.1-16-1.6-.5-3.3-.6-5-.3-8.8,1.3-18-1.5-27.4-2.6-3.5-.5-7.1-.4-10.6-.4h-.5c-11-1.1-23.6-3.1-34.1-.7-.6.1-1.1.2-1.7.1-37.2-4.3-133.3-3.3-157.1,27.3-1.3,1.4-1.4,4-1.7,6.1-.1,1.4,1.3,2.2,1.8,3.4.7,1.3.3,2.8,1.1,4.3.6,1.1,1.5,2,2.3,3,1.5,1.6,2.7,3.4,4.4,4.5.4.2.8.5,1.1.8,74.1,79,193.6,121.3,247,219.4.5.8,1.2,1.2,2,1.6,1,.5,2,1.8,2.1,1.4s-.1-.9-.1-1.3c0-.2,0-.3.2-.2.2.1.6.5.8.7,3.4,4,4.8,10.1,4.3,15.4v.4c.9,41.6-36.7,55.9-79.3,53-3.6-.3-3.1,1.1.2,2.7,1.8.9,5.5,3.3,3.3,5.2-2.2,1.5-6.9,1.5-8.4,3.2-2.3,2.6-5.8,2.7-9.2,3-6.4.4-13.3-1.1-19.5-2.1-.2,0-.5-.1-.8-.1-18.6-.2-36.4-5.6-53.7-12.1-.2-.1-.4-.1-.7-.2-17.8-4.1-34.2-3.8-51.1-11.6-2-.9-3.9-1.8-6-2.4-8.2-2.7-18.2-3.7-24.6-8.4-3.7-2.9-9.2-2.4-12.9-5.5-1.1-.9-2.3-1.4-3.7-1.4-2.5.1-5-.4-7.6-1.3-6.4-2.1-12.9-6.3-19.3-7.5-.9-.2-1.9-.4-2.7-.8-2.1-1-2.7-2.8-5-4.3-1.4-.9-2.9-1.6-4.1-2.6-1.1-.8-2.5-1.7-3.8-2.3-.7-.3-1.5-.4-2.3-.4-.9.1-1.8.1-2.6-.5-1.4-1-3.4-2.2-4.8-3.3-1.3-1.1-2-2.3-3.7-2.9-6-2.8-10.4-6.5-16.5-8.5-1.3-.5-2.7-.8-3.7-.6-.9.1-1.8.3-2.7-.1-4.1-2.2-8.9-4-12.6-6.5-2.4-1.7-4.1-3.8-4.7-6.8-.2-.6-.4-1.2-.8-1.6-.9-1.1-2.3-.6-3-1.8-2.2-3.2-4.8-5.5-7.1-9-1.7-2.5-3-5.2-3.4-7.8-.3-2-1.5-3.5-2.1-5.3-.7-2.4-1.4-4.8-2.3-7.2-.9-2.3-.7-4.9-.5-7.4.6-7.4,1.8-15,5-21.8,3.2-6.6,8.9-9.6,15.1-13.3,3.2-2,4.1-2.8,7-.7,1.7,1.3,2.2,2.4,3.7,4,3.5,3.7,6.9,7.3,10.2,11.1,1.6,1.9,2.1,2.7,3.4,4,.6.8.2,1.9,1,2.8.4.4.9.9,1.4,1.2,2.7,1.8,4.4,4.7,6.8,6.8,1,1,2.5,1.3,3.5,2.3.9.9.5,2.8,1.8,3.9,1.1,1,2.7,1.5,4,2.2,1.8.8,1.7,2.4,3.3,3.1,4.4,2.3,9.4,4.2,13.9,6.9,2.6,1.5,4,3.8,6.4,5.5,7.5,5.5,16.5,10.2,25.9,8.5,2.3-.1,4.3,1.7,6.4,2.5,6.6,3,14,6,20.5,9.2,1.1.6,2.2,1.3,3.4,1.8s2.4.3,3.8.5c.3,0,.5.1.8.2,6.5,2.6,13.3,3.7,20.1,5.1,2.3.4,4.8.8,6.6,2.6,1.4,1.3,3.8,2.2,5.1,3.5,1,.9,1.3,2.4,2.6,2.9,2.1.8,5.2-.7,7.1.9,4,2.4,9.5,1.6,14.2,3,2.7.5,4.7,2.3,7,3.6.2.1.5.3.8.3.9.3,1.9.3,2.9.4,1.7.2,3.2,1.1,4.8,1.4,1.2.2,2.4.2,3.6.3,3,.3,6.6,1.8,9.8,2,2.2.1,3.8-.5,5.7,0,8.5,2.2,21.2,4.3,31,4.1,1.2,0,2.3.1,3.4.5,5.5,2.8,13.1,6,18.7,3.7,1.2-.5,2.5-.2,3.7.2,1.7.6,3.8.2,5.7.5,1.6.1,2.8-.4,4.5,0,.6.1,1.3.3,2,.2,1.4,0,2.9-.7,4.6-.7,1,0,2,.1,3,.1,1.6,0,1.6-1.3,3.2-1.4,2.1.2,4.1.1,5.9-1.1,2.2-1.3,4.9.1,7.2,0,4.1-.4,8.1-2.4,11.6-4.3.6-.3,1.3-.6,2-.5,1.4,0,2.2.8,3.4,1,.6,0,.7-.4,1.1-.8s1-.7,1.2-1.3c.4-1.1.2-2.1-.3-3-1.8-2-2.1-4.6-3.2-7.1-1.5-3.5-4.3-7.3-5-11.1-.1-.5-.4-.8-.7-.9-6.8-3.9-9.2-13.9-16.2-17.4-1-.5-2.2-.7-3.3-1.1-1.5-.5-2.4-1.7-3.5-2.7-1.5-1.2-2.7-3.3-2.8-4.6-.1-1.3-.2-2.2-1.3-3.3-2-2.2-6.4-5.2-8.7-7.7-1.3-1.5-2.2-2.7-3.6-3.9-5.5-4.7-10-9.9-15.3-14.2-.5-.5-.9-.8-1.1-1.1-.4-.4-.8-.8-1.3-1.1l-1.8-.9c-2.7-1.4-4.8-3.4-7.1-5.3-1.1-.9-2.3-1-3.3-1.9-1.1-1.1-2.1-2.2-3.5-2.8-10.9-5.4-17-15.7-27.3-22-.1-.1-.2-.1-.3-.2-2-1.5-4.1-2.5-6.3-3.9-.5-.4-1-.8-1.6-1-1.3-.6-2.5,0-3.8-.6-7.4-4.6-15.2-8.9-23-14.1-1-.8-1.3-1.8-2.1-2.5-.7-.6-1.7-.9-2.6-1.2-3.8-1.2-5.8-6.2-10.1-6.7-1.3-.3-2.4-.2-3-1.4-.3-.8-.3-1.7-.9-2.4-.9-1.2-3.4-1.3-4.7-2.4-.4-.4-.7-.9-.5-1.5.6-1.3.4-2.5-.8-3.4-17.9-15.4-37.1-32.1-56.1-48.1-1.2-.8-1.9-2.3-2.6-3.4-.3-.5-.7-.9-1.2-1.2-2-1.4-3.9-2.5-5.7-4.2-5.7-5.2-10.8-11.3-16.7-16.2-1.6-1.5-2.8-3.7-3.2-5.9-.6-1.8-2.4-2.1-3.2-3.9-1.4-2.4-2-5.6-3-8.3-.7-2-1.6-3.6-2.3-5.5-3.2-8.3-.5-17.5-1.1-25.3-.1-.9.1-1.8.5-2.7.8-1.6,2.4-3.5,3.2-5.1.9-2.1.7-3.7,2-5.3,5.4-7.2,12.3-12.6,20.1-16.8,16.6-8.9,37-12.6,54.5-17.8.1,0,.2-.1.3-.1,1.9-.7,3.8-1.4,5.8-1.3,2.3-.1,4.2-1.1,6.5-.8,1.7.2,2.6.9,4.5.6,1.5-.3,3.3-.8,4.9-.7.4,0,.7.3.7.6.1.8,1.6.2,2.2.1,2-.3,3.6-1.2,5.3-1.2,1,0,1.8.4,3.2.2,42.4-4.1,85.9.6,127.9,1.4.3,0,.7,0,1,.1,3.6.8,7.2,2.6,10.9,2.7,5.9.5,11.7-.5,17.6.3.2,0,.4.1.6.1,30.4,7.8,63.2,11.9,92.9,22.1.6.2,1.1.3,1.7.3.9,0,1.7-.2,2.6.2,1.6.5,3.1,1.9,4.5,2.5.9.3,1.9.4,2.8.4,1.8,0,3-.7,4.4,0,1.3.9,2.9,2.1,4.6,2.5,8,2,15.9,6,24.5,6.7,1,.2,2,.5,2.7,1.1.6.6.3.9.8,1.2.4.2.9.4,1.3.6,3.6,1.5,9.9,3.2,13.5,5.1,3.3,1.5,9.8,1.7,12,4.5.7,1,1.4,1.8,2.6,1.8,3.4.1,9.2,2.3,12.3,4.4,1.1.7,2.1,1.5,3.3,2,.2.1.5.2.7.2,1.1.2,1.9-.1,2.8.7,1.2,1,2.6,1.8,4,2.5,1.6.8,3,2.2,4.9,2.6,1.7.4,3.5.4,4.8,1.7,7,6.1,15.4,10.8,23.3,16,.1.1.3.2.4.3,12.5,10.2,25.1,20.3,35,32.5,7.5,8.7,7,21.3,8.8,31.9l.5.1Zm-271,180.8h-.2v.1q.1-.1.2-.1h0Zm-17.5-25l.2.1c0-.1-.1-.2-.1-.3,0,.1-.1.1-.1.2ZM269.87,37.96h0l.6.3c0-.4-.3-.3-.6-.3Zm-103.9,86.8c-.5-.5-1.2-.9-1.8-1.4.3.7,1.1.9,1.7,1.5,0,0,0-.1.1-.1Zm148.2,155.5c-.7-1.1-1.5-2.4-2.9-2.8.1.5.5,1.4.9,1.9.4.7,1.2.9,2,.9h0Zm-239.7-11.3c-.5-.9-1.9-1.4-2.8-1.6.5.8,1.8,1.6,2.8,1.6h0Zm-13.7-9.7c.5-.7-1.1-1.2-1.4-1.3,0,1.4.4,1.5,1.4,1.3Zm410.8-84.7c-.5-.3-.9-.2-1.2.2.2.4.9.1,1.2-.2Zm-58.5-6.7c-.2.1-1.4-.3-1.3.3.5,0,2,.7,1.3-.3Zm34.6,37.1c.6.4,1.2.3,1.9.2-.6-.4-1.2-.2-1.9-.2Zm24.6-171.1c.3-.1.5-.2.8-.3-.5-.6-1.9-.3-.8.3ZM195.37,188.86c.2,0,1.2.6,1.3.1-.5-.2-1.6-1.3-1.3-.1Zm186.1,143.7c.4,2.5.8,0,.4-1.2-.1.5-.3.8-.4,1.2Zm-302.7-61.4c-.1-.4-.7-.5-1.2-.4.4.6.8.7,1.2.4Zm-2.3,62.4c.2,0,1.3.5,1.3-.1-.5-.1-1.8-1-1.3.1Zm233.3,51c-1.4.2.2,1,.6.5-.1-.1-.4-.3-.6-.5Zm0-1.4c-.2.2-.5.3-.7.5.6.4,2-.3.7-.5Z" style="fill:currentfill;"/></g></svg>