<?xml version="1.0" encoding="UTF-8"?><svg id="Layer_2" xmlns="http://www.w3.org/2000/svg" viewBox="0 0 662.28 680.57"><g id="Layer_1-2"><path d="m553.87,230.52h0c.1.1,0,.1,0,0,0,.1,0,0,0,0h0Zm72.1-110.8s.1,0,.1-.1c0-.2.1-.4.1-.6h-.1s0,.1-.1.2v.5h0Zm-17.6,71.4h.1v-.1h0l-.1.1h0Zm-60.4,63.2h-.2v.1l.2-.1h0Zm4.2-11.6c0,.2,0,.4.1.6l.6-.6c-.1-.1-.2-.3-.3-.6-.2.2-.3.4-.4.6h0Zm34.5-112.5c.1-.1.3-.2.3-.3.1-.2.1-.4.1-.7-.1.1-.3.2-.5.4,0,.2,0,.4.1.6h0Zm2.3-4.9c.1.1.2,0,.3-.1v-.5c-.3.1-.4.1-.5.1.1.2.1.4.2.5h0Zm-24.5,210.9c.1.1.1.2.2.2,0,0,.1-.1.2-.1,0-.1-.1-.2-.2-.3-.1.1-.2.1-.2.2h0Zm-6.3,16.7v.4l.2.1c0-.1.1-.3,0-.4.1-.2-.1-.1-.2-.1h0Zm-6.5,16.9c.1,0,.2-.1.2-.1v-.4c-.1,0-.1.1-.2.1v.4h0Zm-38.2,71.2c.1.1.2.1.2.2,0-.1.1-.1.1-.2-.1,0-.2-.1-.2-.1,0-.1,0,0-.1.1h0Zm29.5-155.6h.2l-.1-.4h-.2c.1.1.1.3.1.4h0Zm43.1-154c.1.1.1.2.2.2,0,0,.1-.1.2-.1,0-.1-.1-.2-.2-.3-.1.1-.2.1-.2.2h0Zm14.4-41.4v-.4l-.2-.1c0,.1-.1.3-.1.4,0,.1.2,0,.3.1h0Zm28.4-60.8v-.2h-.3v.2h.3Zm-.5-.4c0-.1,0-.2-.1-.3,0,0-.1,0-.2.1,0,.1,0,.2.1.3,0-.1.1-.1.2-.1h0Zm33.9,26.7c-.3,7.1-.8,14.2-1.1,21.3-.2,5.3-.6,11.8-2.2,16.7-.2.6-.5,2.5-.5,3.3-.4,6.5-1.9,12.1-3.1,18.1-.2.8-.2,1.7-.4,2.6-.6,4.2-1.2,8.2-2.5,12.3-.4,1.5-.8,4.2-1.2,6.4-.2,1.1-.3,2.1-.4,3.1-.4,3.5-1.4.1-1.5,5.2-.1,2.9-1,6.4-1.7,9.9-.7,3.2-1.4,6.4-2.1,9.6l-2.5,10.8-2.3,9.5c-.9,3.5-1.7,7.2-2.8,9.3-.2.3-.7,2.1-.7,2.4-.4,5.9-3,13.4-4.7,20-.5,2-1.1,4.2-1.7,6.3-.9,3.3-1.7,7.3-3,9.9-1.2,2.6-1.7,4.1-1.3,5.1,0,0-.1.5-.2.8-.5,1.9-.8-1.3-1.6,4.2-.2,1.6-2,6.8-2,7.5,0,2.2-2,4.8-1.7,6.2-1.7,6.1-3.3,12.3-5.7,16.7-.2.3-.9,2.8-1,3.7-.2.9,1-.6-.6,2.8-.3.6-.5,1-.8,1.6-1.6,3.3-1.6,3.4-3.1,9-1.3,5-2.5,9.7-4.8,14.5-.4.8-1,3.4-1.5,5.2-.3,1-.7,2.6-.9,3.1-2.5,5.2-4.2,11.8-6.4,17.5-.8,2-1.6,5-2.1,4.5,0,0,0,.1-.1.2s-.1.3-.2.5c-.2.4-.4.9-.5,1.2-.7,2.2-1.3,4.3-2.1,6.4-1.2,3.4-2.6,6.7-3.7,10-1,3.1-1.8,6.1-2.8,9.2-.8,2.4-2,4.9-2.9,7.3-.8,2.2-1.5,4.5-2.3,6.8-1.6,4.7-3.1,9.3-5.4,13.7-.4.8-1,2-1.5,3.4-.5,1.3-1.1,2.7-1.6,4-1.2,3.2-2.4,6.3-3.6,9.4-1.6,1.5-2.4,5.8-4.1,8.8-1.2,2.2-3,6.3-4.5,9.6-1.5,3.3-3.1,6.7-4.6,10-1.6,3.5-3,6.1-4.7,8.4-1,1.4-2.4,3.9-3.6,6-.6,1.2-1.3,2.7-2,4.1.5-.6,1-1.3,1.6-2,.3-.4.7-1,1-1.4-.3.8-.6,1.7-1,2.5-12.1,24.1-25.2,47.7-39.6,70.6-3,4.6-5.3,9.2-7.4,14.1-.7,1.7-1.5,3.8-2,4.9-.8,1.8-.4,3.5-1.3,5.1-.1.1-.2.7-.3,1.3-.1.6-.2,1.3-.3,1.6-.3,1.1-.7,1.7-1,2.5.2.6.5,1.6.5,1.7-.1.7-.1,1.4-.1,2.1v2.2c.1,1.4.2,2.9.3,4.3.2,2.9.3,5.8-.1,8.8-.1.6,0,2.4,0,3.5-.1,5.1.7,9.4.5,15.3-.2,3.7.1,10,.8,15,.2,1.2-.1,4,0,6,.2,6.7-.2,13.8.2,19.9-.5,3.3-.4,6.5-.5,9.9l-.1,2.1-2.1-.1c-.6,0-1.2,0-1.8-.1-2.9-.1-5.4-.3-7.5-.9-.5-.2-1-.3-1.4-.5-.1-.1-.2-.1-.3-.2l-.2-.3c-.1-.2-.3-.3-.4-.5-.5-.7-1-1.4-1.4-2.1-.5-.8-.9-2-1-3-.1-.8,0-1.5.1-1.9v.3c.2.4.4.9.5,1.2,0,0-.1-.6-.5-1.7.2.2,0-.3-.2-.8-.4-1.5-.6-2.7-.8-3.8-.2-1.3-.4-2.6-.5-3.8-.3-2.1-.3-4.1-1-6.3.1-2.5-.3-4.5-1-6.9-.1-.5-.1-3.5-.4-4.8-.3-1.7-.8-2.7-1.2-4.3-.2-.8-.5-2.6-.5-3.2,0-2.1-.2-4.4-.6-6.8-.2-1.1-.3-2.2-.5-3.4-.1-1-.3-1.9-.4-2.9-.2-1.8-.5-3.7-.8-5.5s-.6-3.6-.8-5.4c0-.3-.1-.6-.1-.8l-.1-.4v-.2s-.1.1-.2.1c-2.1,1.4-4.4,3.2-6.1,3.8-.3.1-2.5,1.9-3.1,2.2-1.4.7-2.5,1.2-3.7,2.3-1.9,1.6-3.1,1.5-5,2.9-1.3,1-2.7,1.9-4.3,2.9-2.5,1.6-4.9,2.2-8.1,4.4-2.1,1.4-6.4,3.3-9.7,4.9-4.6,2.2-9.9,3.8-14.2,5.7-.8.4-3.1.9-4.6,1.2-2.2.5-4.3.7-6.5,1-2,.3-4.4.5-6.2.8-2.5.3-3.1-.1-6.1,0-3.6,0-7.4-.1-11.2-.9-2.5-.5-4.9-1.1-7.4-2-2.4-.9-4.8-1.9-7-3.2-4.1-2.3-7.8-5.2-11.2-8.3-1.5-1.4-3-3-4.4-4.5-4-4.5-7.2-8.6-9.9-11.8-2.2-2.8-1.8-2.9-1.6-3.3,0,0-.6-1.4-.7-1.5-1.1-1.3-1.6-2.7-2.1-4s-.8-2.5-1.3-3.5c-1.5-3-2.2-4.9-2.5-7.2-.2-1.7-.5-1.6-1-2.4-.5-1-1-2.3-1.4-3.6s-.6-2.5-.5-3.3c0-1,.1-1.4-.4-3.8-.9-4.7-2-9.5-2.2-14,0-.4-.2-1.5-.2-1.6-1.5-4-1.6-7.6-1.3-11.1-1-3.6-.3-4.7-.4-7-.1-2.5-.4-5.6-.5-8.1,0-2.8-.1-7.8-.2-12.7-.1-4.9-.1-9.7-.3-12-.2-3.2-.2-4.4.1-7,.4-3.4.6-7.6.9-13.9.1-.4.3-.8.3-1.4.1-.9,0-2-.2-1.2,0-.7,0-.5-.1,0-.7-.4-.1-4.6.1-8.4.1-1.3.5-2.7.5-3.9.2-4.1.9-8.8.6-12.4.6-2.2,1.2-5.1,1.7-8.3.6-6.3,1.2-12.5,2-18.7.6-4.6,1.1-9.1,1.6-13.5v-.1c0-.7.2-1.6.5-4v-.2c.3-2.2.5-4.4.8-6.5,0-.7-.1-1.4,0-2.1.3-2.5.7-5.4,1.2-7.5.6-5.5,5.9-20.1,6.5-25.1.8-6.8,1.3-10-5.1-12.5l-9,6.2c-16.6,23.5-32,47.9-45.8,72.6-13.7,24.6-26.9,49.6-39.2,74.6-2.2,4.4-4.4,8.8-6.5,13.3-.4.9-.9,1.9-1.4,2.8-9.7,19.8-19.1,39.7-28.1,59.2-11.5,24.8-23.9,49.7-36.8,74l-10.2,17.2c-3.3,5.7-7,11.3-10.9,16.7-3,4.2-6.4,7-10.3,8.5-3.1,1.2-6.2,1.9-9.1,1.9-.8,0-1.6,0-2.4-.1-3.8-.5-7.1-1.6-10.2-3.6-.3-.2-.6-.4-.9-.7-.3.2.1.9.9,1.7,1.3,1.3,3.7,2.7,5.4,3.6,1.2.6,1.6,1,1.8,1.2.2.3.1.5.4.8.8.8-2.4.5-5.8-.6-.6-.2-1.2-.4-1.9-.7-.8-.3-1.5-.7-2.2-1-3.4-1.6-5.4-4.3-5.2-2.9-1.3-1.7-2.1-3.2-2.7-4.6-.3-.7-.6-1.4-.8-2.1-.1-.3-.2-.7-.3-1.1-.1-.3-.2-.7-.3-1.1-.6-2.1-1.2-4.7-1.2-9.6,0-3.7-.1-8.2.6-11.8v-1.3c0-.5,0-.9.1-1.2.1-.8.2-1.5.3-2.3.2-1.5.5-3,.8-4.8.6-3.4.9-8.3,1.2-12.1.2-3.1.6-6,1-9s.6-5.8,1-8.8c.5-3.5,1-6.6,1.9-9.8,1.1-3.8,2.2-9.2,3.4-13.8.8-7.3,2.4-13.5,4.1-19.9.9-8.7,4.3-20.5,4.5-28.1,0-1.6.8-5.4,1.4-8.2.7-3.3,1.6-6.8,1.9-9.9.1-.8.9-3.8,1.3-5.1,1.9-5.3,2.4-7.8,4-15.5,1.1-5.5,2.3-11.4,3.6-16.5.6-2.5,1-3.6,1-5.2,0-2.5.6-5.4,1.6-9.2.9-3.6,1.6-8.9,2.8-9.6-.3-1.5.9-4,1.1-6,.3-3.2,1-6.6,2-9.6.3-.9.5-1.1.8-1.6-.1-.3-.4-.3-.3-1,.6-4.8,1.2-9.5,2-14.5.3-1.6.5-3.1.8-4.8.3-1.6.8-3.6,1.3-5.4,1.3-4.6,2.6-10.8,2.4-14.7,0-.2.7-3.4.8-3.5,1.1-.7,1.8-5.2,2.6-9.5.4-.3.7-2.1,1-3.9s.5-3.6.9-4c-.1-.5-.2-1.3-.4-1.4-.5-.3-.4-2.1.1-4.2.3-1.2.5-3.2.6-5,.2-1.7.3-3.1.8-3v-1.6c0-1.8,0-3.7-.1-5.5,0-1.2-.1-1.2-.1-1.6l-.1-1v-2c0-.7,0-1.4-.1-1.6-.3-.6-.9.4-1.1-.8,0,0-.1,0-.1.1-.1.1-.5.7-.6.9-.3.7-.6,1.2-1.1,1.5-.6.2-.9.8-1.2,1.4-.2.4-.3.7-.5.9-.1.1-.1.2-.2.2s-.1.1-.2.1h0l-.1.1-.4.3c-2.2,1.5-4.3,2.6-5.8,2.9-.3.1-.8.2-1.1.3-.2.4-.8,1-.6,1.1.6.4-.2,1.1-2.8,2.8-.3.2-1.6,1.5-2.1,2.1-1.8,2.1-6.6,6.6-8.7,8.1-.4.3-.6.3-.9.5-.2.4-.8,1.1-.7,1.2.6.5-1,2.6-4.2,6-3.4,3.6-4.1,5.5-5.4,7.6s-2.3,3.6-4.6,5.6c-.5.5-1.9,2.1-2.2,2.6-2.1,3.5-2.2,2.9-2.7,2.8s-.7.1-1.6,1.5c-.7,1-5.6,7.5-6.4,8.5-1.6,1.9-3.5,4.3-4.7,5.5-1.7,1.7-2.3,2.7-3.1,4.3-1.1,2.2-1.4,2.5-2.2,2.7-1.4.3-3.1,2.4-5.7,6.7-1.5,2.6-2.1,4-3.3,4.5-.6.2-.8.7-3,4.5-.9,1.5-2.1,3.3-3.1,4.9-.6,1-.9,1.9-1.4,2.8-1.4,2-2.9,4-4.3,6.1-2,2.9-4.4,7.9-5.9,8.4-.1,0-1.2,1.8-1.7,2.7-1.4,2.1-2.8,4.3-4,6.2-1,1.5-2,2.6-2.9,3.9-.6,1.8-1.4,3.4-2.8,5.2-.2.2-1.1,2.3-1.3,3-.5,1.8-1,3.2-1.3,4-.8,1.9-1.5,3.6-2.4,5.5-2.2,4.5.5,3.2-4.3,11.2-2.2,3.7-4.2,9.9-6.6,14.1-5.2,8.8-9,22.2-22.1,20.7-1.3-.1-2.3-.3-3.3-.4-.5,0-1-.1-1.5-.2l-.8-.1-.4-.1h-.3l-.3-.4c-.3-.1-.7-.3-1-.4-.7-.3-1.3-.7-1.9-1.1-.4-.3-.9-.7-1.3-1.1-.4-.4-.8-.9-1-1.1-.2-.3-.5-.6-.7-.9l-.3-.5-.2-.3c-.1-.2-.2-.5-.4-.7l-.2-.4v-.3c-.1-.3-.3-.8-.4-1.1-.4-1.3-.5-2.1-.6-3-.1-.8-.1-1.6,0-2.5,0-.4.1-.8.1-1.3.1-.5.1-1.1.3-1.6.1-.6.3-1.1.4-1.7.1-.5.2-1,.3-1.5.2-.9.4-1.8.6-2.7.3-1.7.6-3.2.9-4.9.3-1.8,1.2-4.6,2-6.9,1.5-4.3,3.5-8.5,4.7-12.5.3-1.1,2.4-5.9,2.9-5.2.1.1.6-.9.9-1.5,2.7-5.4,4.2-7,5.6-8,1-.6,2.2-3.2,2.9-5.6.1-.4.2-.8.4-1.3.7-2,1.4-3.6,2-3.2,0,0,.1-.1.2-.4s.3-.5.5-1c.5-.8,1.1-1.9,1.7-2.9,1.2-2.2,2.5-4.4,2.6-4.7,1.1-2.9,2.4-5.5,5.1-9.1.6-.8,1.9-3.6,2.9-5,.8-1.1,1.3-1.2,2.1-2,.4-.5,1.1-1.4,1.8-2.3,1.6-2.2,1.4-3.7,3.7-6.3,1.5-1.6,2.2-3,3.3-5.1.8-1.6,2.6-4,3.8-6,2.3-3.8,6.2-8.3,6.9-11.3.2-.9,4.3-6.3,8.5-11,.2-.3.5-.5.6-.6,1.9-2.9,3.9-6.5,5.6-8.5,2.3-2.8,4.2-4.6,5.9-7.5.4-.7,1.3-1.8,2-2.7,2.3-3.2,4.6-6.6,7.1-9.5,1.5-1.7,3.3-2.8,5.1-4.4.7-.6,1.8-1.7,2.6-2.6,2.5-2.9,4.9-4.4,7.6-8.1,1.3-1.9,5.5-5.4,5-6.1-.3-.3,1.2-1.6,1.9-2,2.1-1.1,3.8-3.4,5.9-5.3,1.2-1.2,4.4-2.8,3.6-3.4.7-.6,1.9-1.5,2.2-1.7,1.2-.6,2.3-1.3,3.3-2s1.9-1.6,3.1-2.6c.5-.5,1.7-1.3,3-2.1,1.3-.8,2.6-1.5,3.2-1.7,4.1-1.6,3.9-1.7,3.6-2.1-.4-.6,1.1-1,4.1-1.9.9-.2,2.4-.7,3.9-1.1,1.5-.5,2.9-.9,3.6-1.4.4-.3,2.8-.9,5.3-1.2,2.5-.3,5.3-.2,6.2.1,1.7.5,1.6.4,4.7.5,1.1.1,2.7.4,4.4.9s3.5,1.2,5,1.9c1.5.7,3.2,1.6,4.6,2.6s2.6,1.9,3.2,2.4c1,.7,2.1,1.8,3.1,3.1,1,1.3,2,2.8,2.7,4.3,1.6,3.1,2.5,6.1,3.2,8.1,0,.1.1.7.2,1.4.1.4.1.7.1,1.1.1.5.1,1,.1,1.3,0,1.2,0,1.6-.1,2.2l-.1,1.8c-.1,1-.2,2.1-.3,3.2-.1.7-.1,2.3-.1,2.7.5,4.9.1,6-.6,5.9-.1,0-.3,1-.5,1.5.1,1.2.1,3,.2,3.6q.4,1.4,0,3.1c-1.1,4.4-2.5,9.9-3.4,15.3-.7,4.6-1.3,6.8-2.4,9.6-.3.7-.9,3.6-.9,3.8.1,1.1.6,1.6-.6,5.1-1.1,3-.5,3.5-1.1,5.8-.8,3.2-1,.4-1.9,4.8-1.4,7.5-3.3,12.5-5.4,19l.1-.7c-.2.5-.3.9-.5,1.4,0,.1,0,.5.3-.3-.2.7,0,.4.1,0v.2c.2-.1.3.5.2,1-1.3,5.4-2.1,8.9-2.5,12.1-.1.3,0,.8-.1.9-.6,2-1.3,3.8-1.8,5.8-.4,1.6-.4,3.4-.6,5.2-.1.2-.3.1-.4.6-.3,1-.9,2.6-1,3.2-.4,3-.8,6-.9,8.5-.1,1.3.3,1.4.5,2-.4,1.6-1.2,4.1-1.3,4.7-.4,5-1.6,4.5-2.2,8-.2,0-.4-.3-.7-.1-.1.1-.6,1.2-.6,1.5-1.1,7.1-2.6,14.1-4.6,20.9-.1.3-.2.9-.3,1.1-.4,3.1-1,5.8-1.7,8.4-.7,2.6-1.4,5-2,7.7-1.1,4.6-2.3,10.1-2.6,14.6,0,.1-.4,1.3-.7,1.8v-1.1s-.2.5-.2,1.4c-.1-.2-.1.2-.1.7l.1-.2c-.4,5.1-1.2,9.7-2.4,14.5-.2.8-.3,1.7-.5,2.5.3,0,.6.4,0,3.1-.2.9-.6,1.1-.9,1.9-.1.3-.3,1.7-.4,2.5-.3,3.1-.9,6.7-.9,9-.1,3.6-1.7,7.6-1.6,10.8l-.2.8-.2.8c-.4-1-.9,2.7-1.3,4.1-1.1,3.8-1.3,8.5-2,12.4s-1.6,7.4-1.3,11.2c-.2.8-.3,1.5-.3,2.3v.9c0,.2.1.3.1.4.1.6.2,1-.2,1.8-.1.1.1,1.5.6.7.1-.2.3-.2.4-.3-.3.7-.1,1.2.1,1.5.2.3.3.6-.2,1.8,0,.1-.1.3-.1.3.1,0,.5-.4.6-.6q.2-.1-.1,1.2c-.1.5,0,.6.1.7s.1.3-.3,1.3c.1.1.2.3.3.1s.3-.1.4.1c0,.1.1-.1.1-.2l.1-.2c.1-.1.2-.3.2-.4.1-.2.2-.3.3-.2.1.2-.7,2.5.1,1,.3-.5.6-2,.8-2.2.3-.4.4-.2.7-.4.1.1.2.5.2.3.4-.8.8-1.5,1-2.2.1-.5-.1-1.3.3-1.5.2-.1.4.6.6.9.1.1.3.2.4.2,0-.3-.1-.5-.1-.8.1-.5.3-.9.3-1.3,0-.2.1-.4.1-.4.2-.3.4-.4.5-.3.3.1.6.2.8.5s.7,0,2-2.4c.9-1.6,2.2-4.1,2.7-4.8,2-2.5,2.9-4.4,3.8-7.8.1-.4.3-.9.5-1.4s.5-1.3.8-1.9c.6-1.2,1.4-2.5,2.1-3.4,3.4-4.5,6.9-10.9,10.4-18.5,2.2-4.9,5.2-10,6.6-14.7,2.1-3.9,4.1-8,6.1-11.6,1.7-3.1,2.9-5.8,4.3-9.1,1.9-4.5,4.2-9.3,6.3-14,.2-.5.7-1.2.9-1.4.4-.4.7.4,1.4-2.4.7-2.8,2.2-5.8,3.7-9.1,3.7-7.9,7.3-15.5,10.3-23.1.9-2.2,3-7.5,4.4-8l.9-2c-.7.1.8-3.2,1.6-4.4,3.2-4.9,5.3-10.5,7.9-15.6,2.6-5.2,5.2-10.6,7.9-14.9,2.1-3.3,1.2-2.4,1.1-2.7-.1-.4-1.1.1,1.2-3.1,1.6-2.2,3.4-4.5,3-6.2,0,0,.6-1.3.7-1.5,1.3-1.7,1.8-3.1,2.9-5.4,1.8-3.9,3.9-7.9,6.6-11.7,3.2-4.5,6.9-9.9,9.1-16.1,0-.1.8-1.3,1.1-1.6,2.6-2.9,5.2-7.1,7.9-12.5,1.2-2.5,2.5-5,3.8-7.5.9-1.6,2.2-3.8,3-4.9,3.9-5.1,5.7-9.5,8.1-13.8,1.4-2.5,1.9-4.3,4.2-6.8.1-.1,1.1-2.3,1.8-3.1,1.7-2.4,1.6-3.9,3.9-6.2,2.1-2.2,2-3.8,4-5.9.5-.6,1.8-2.4,1.9-2.4,1.1-.1,2.2-2,3.9-4.9.7-1.1,2.5-3.3,3.9-5-2,3.8-.1,1.1,1.6-1.5,1-1.5,2-3,2.8-4.3,2-3.2,1.5-1.7,2-2.1.2-.1,1.1-1.1,1.2-1.2.8-1.4,2-2.8,3.1-4.1,1.3-1.5,2.7-2.9,3.8-4.3,1-1.2,2-2.3,3.1-3.4l1.4-1.4.4-.4.5-.4c.4-.4.9-.8,1.3-1.1s.9-.7,1.4-1c2-.8,4-1.4,6-1.9,1-.2,2-.4,3.1-.5.6,0,.9-.1,1.4,0h1.2c.8.1,1.6.1,2.3.2h0c1.3.1,2.9.4,4.5.7.8.1,1.6.4,2.4.6s1.6.6,2.4.9c1.6.7,3.3,1.5,4.9,2.8,1.6,1.2,3.1,2.7,4.2,4.5,1.1,1.7,1.6,3.2,2,4.6.2.7.4,1.4.5,2.1.1.3.2.7.2,1,0,.2.1.3.1.5l.1.2v.1c.1.3.3,1.5.3,1.7-.5,3.5.8,8.4,1.1,12.6.2,2.8.7,5.2.3,8.3-.1.9,0,3.3-.1,5,0,6.1-.6,12-1.5,17.9-.2,1.5-.5,2.9-.7,4.4-.2,1.4-.5,2.9-.8,4.3-.5,2.8-.9,5.6-1.3,8.5-.5,3.5-1,7.1-.8,9.5.2,1.4-.3,2.2-.5,3.4-.3,1.7-.5,3.9-.6,5.6-.1,1.9,0,4.8,0,5-.7,2.8-.6,6.7-1.1,9-.6,3.3-.9,6.8-1.1,10.3s-.3,7.1-.5,10.6c0,.6.1,1.6.2,2.2.1.4.2.5.3.7-.1.6-.2,1.3-.4,1.8-.3,1.2-.6,2.1-.9,3.4,0,.3-.1,1-.1,1.7v1.3c.7.6.1,3.4,0,5.6-.1,4.3-1.2,10.7-.1,12.7-.2,5.8,0,11.5-.5,16.9-.1,1.6-.2,3.2-.4,4.8-.2,3.4.7,6,.6,10.2-.1,2.5.4,7.1,1.1,11,.5,3.1,1.1,8.2,1.4,11.3.5,6.4,2.3,12.7,3.8,18.9,1,4,2.7,8.3,3.2,12,.1.4.4,1.6.6,2.1,3.2,7.5,5.7,16.2,9,23.8.2.4.3.8.5,1.1.1.3.2.6.3.9.2.6.4,1.2.6,1.8.5,1.1,1,2.2,2,3l.3.6c-.5.1.2,1.2,1.2,2.3.9,1.1,2.1,2.1,2.1,2.5.6.5,1.9,1.4,1.9,1.3.5-.5,1,.3,2.7,1.6.5.4,1.1.7,1.5,1s.8.5.8.7c0,.5,1.2.6,2,.7.6,0,1.4.2,2.1.2s1.3-.1,1.2-.4c0-.2.6-.2,1.4-.3.7,0,1.6-.1,1.9,0,.6.2.8.3,2.7,0,1.5-.3,2.8-.9,4-1.5,1.3-.7,2.6-1.3,4.4-2.1,1.1-.5,2.6-1.2,4.2-2.2s3.3-2.1,4.7-3.1c3.2-2.2,6.3-5.2,9.4-8.1,1.5-1.3,3.3-3.2,4.4-3.3-.4.4-.8.8-.9,1-.1.3.5,0,1.3-.9.1.1.3-.1.4-.3,2.2-2,4.5-4.7,6.8-6.5,2-1.5,4.9-4.2,7.1-6.5,2.8-2.9,5.4-6,7.9-9.2,1.9-2.3,3.5-4.3,3.6-3.5,0,.2.7-.4,1.1-.6.1-.4.1-.7.4-1.3.3-.5,1.1-2,1.3-2.1,2.1-2.2,3-4,4-6,.3-.6,1.4-2.4,2.1-3.3,1.2-1.7,2.3-3.1,3.4-4.6,1.7-2.3,2-3.2,1.9-4.1,0-.3.1-.7.3-1,.2-.3.5-.6.7-.8.3-.3.9-1.3,1.3-2.1.2-2.3,1.4-4.2,1.6-6.4.1-.8.1-1.5.1-2.1s-.1-1-.3-1.5c-.5-1.2-.4-3.8.1-4.7.4-.9.8-2.7.8-4v-1.4c0-.4.1-.9.1-1,0-.2.1-.5.1-.7,0-.3.1-.5.1-.8.1-.5.2-1,.2-1.6.4-5.1,1.8-10,1.5-15.2,0-.4.1-1.8.2-2.4.9-3.8,1.1-7.6,1.3-11.4,1.4-6,2-13.2,2.7-19.6.3-3,.2-3.7.8-3.5.1,0,.4-1.6.4-1.8.1-4.3,1.4-8.6,1.7-12.6.2-3.1.4-5.4,1.2-7.4.1-.2.3-1.7.4-2.5.2-2.3.3-5.7.5-6.6.9-3.4.3-5.3,1.1-8.2.5-2,.7-4.1,1.1-6.5.4-3.1,1.5-6.8,2.2-9.6.7-2.6,1.4-6,1.2-7.3-.5-4.4,1.8-11.3,2-16,1.3-2,.9-7.9,2.1-10.5v-.5c0-.3.1-.8.1-1.3.1-1,.2-2.2.3-3.1.6-4,1.4-8.1,2-12.1.8-5,2.1-10.3,2.3-14.8,0-.5.3-1.6.4-2.4.8-3.7,2-8.1,2.3-10.8.5-3.9,1.2-7.5,1.9-11.3.2-1.2.5-2.5.7-3.6.7-2.5,1.5-3,2-8,.2-1.8,1.5-6.5,2.3-9.2,1.6-5.2,2.3-9.2,2.5-13.4.1-1.5.4-3.8.8-5.9.6-3.9,1.1-2.4,1.5-3.9.9-3.7,2.3-6.3,2.9-11.5.3-2.5,1.6-7,2.1-10.1.4-2.4,2.4-6,1.5-7-.1-.1.1-.9,1-1.8.2-.2.5-.8.7-1.3-.1-.4-.1-.8-.2-1.1-.1-.2-.3.2-.3-.2s.3-1.5.5-2.3c.7.2,1.1-1.6,1.6-4.8.3-2.6,1-4.7,1.9-7.4.5-1.6,1.1-5.3,1.6-6.7,2.1-5.7,3.5-12.1,5.3-18,1-3.4,2-7.1,3.1-10,.8-2.1.7-2.6.9-3.4.2-1.7.3-2.9,1.5-5.1,1.3-2.6,1-5.2,2.6-9,1-2.3,2.8-7.9,3.1-9.7.6-3.4,3-7.2,2.8-9.3.2-.4.5-1,.7-1.2.3-.4.4.6,1-1.8,1-4.3,2.1-8.3,4.2-12.7,1.2-2.6.9-4.1,2.3-6.7.8-1.5,1.1-3.8,2.3-5.9.7-1.2,1.6-4.5,2.4-6.9.5-1.6,1.8-3.8,2.6-5.8,1-2.5,2.3-5.3,2.6-7.2,4.1-8.2,7.6-17.4,12-25.8,2.7-5.1,2.6-5.1,4-9.3.4,0,.1,1,2.2-2.4,1.5-2.6,1.8-4.6,4-7.1.9-1,2.2-4.6,4.1-6.5.2-.2,1.1-1.6,1.2-1.9,1.2-3.3,3-5.5,5.7-8.1.6-.5,1.6-1.7,2.5-2.8,1-1.1,1.9-2.2,2.2-2.7,1.3-2,2.9-3.4,3.5-4.2,2.3-2.8,4.8-5.4,7.6-7.7,5.4-4.3,14.4-7.4,21.4-8.2,3.6-.4,14.3,4.5,14.2,9.3,0,.1.6.8,1.2,1.5.6.8,1.1,1.5,1.2,1.6,1.2,1.1,2.3,2.7,3.2,4.3.9,1.7,1.7,3.5,2.3,5.1,2.1,5.3,3.7,10.9,3.6,17.2-.2,4.2.4,10.4.1,16l.7.5Zm-37.8-25.9c.7.5,1.7,0,2.6-.2.8-.1,1,.3,1.5.5.6.3.4.8.3,1.5-.2.8-.5,1.9.4,2.3-.5,1.2.6,2.2-.9,3.5-.6.5-.9,1.3-1.6,1.7,0,.8-.6,1.1-1.2,1.6-.5.5-.8,1.6-1.1,2.3-.2.6-.5,1.2-.8,1.8s-.4,1.2-.7,1.8c-.4.7-.7,1.2-1.5,1.6-.9.4-1.7,1.3-2.5,2-.4,1.6-1.5,2.5-2.6,3.5-.3,2-2.4,3.8-1.9,5.9.1.4-.2,1.2-.5,1.8-.3.7-.8,1.3-.7,2.1,0,.2-.4.7-.7.9-1.2.8-1.5,1.2-2.1,2.8-.5,1.1-1,2.3-1.7,3.2-.3.4-.6.6-.4,1.1.2.7-.1,1.3-.6,2s-.7,1.8-1.6,1.6c.4.5-.4.8-.4,1.2,0,.8-.3,1.4-.9,1.9-.2.1-.4.1-.6.2.1.1.4.2.3.4-.2,1.1-.2,2.2-.5,3.2-.2.7-.3,1.3-.8,2.1-.7.9-1.3,2.1-.8,3.3,0,.1-.4.7-.5.7-.9-.2-1.3.8-1.7,1.6-.8-.2-.6,1.5-1.4,1.4.1.2.2.4.4.5.5.2.5.7-.1,1s-.7,1.8-1.5,1.4c0,.1,0,.2-.1.4-.3.8-.5,1.6-.8,2.4-.3.7-1,1.4-1,1.8,0,.6.7.8.3,1.8,0,.1.2.4.3.4.4.2.7.3.3,1s-.2,1,0,1.6c.4,1.7-.6,2.9-2.1,3-.2,0-.4,0-.5.1.1.1.2.4.3.4.6.2.6.4-.1.9-.1.1-.1.5-.1.7.1.7-.5,2.1-1.2,2.4-.1.1-.2.1-.4.1.1.2.1.4.2.4.7.3.8.9.3,1.9s-.1,1.6.1,2.3c.2.7.2,1.1-.4,1.6-.1.1-.3.6-.3.7.3,1.1-.1.8-.6.7-.4-.1-.4,0-.4.4,0,.3-.5,2-.7,2.3-.3.5-.6,1.1-.9,1.4-.5.4-.5.6-.4,1.1.2.7.1.7-.5.7-.9-.1-1.4.4-1.4,1.6,0,.7.1,1.1-.6,1.1-.3,0-.3.1-.4,1.1,0,.4-.3.8-.3,1.2,0,.3.1.5.1.8-.3.5-.6.9-.9,1.4-.4.7-.3,2-1.4,1.9-.1,0-.2.4-.3.6-.3.5-.6,1-.9,1.4-.3.3-.6.5-1,.8.2.5.1.9-.4,1.3-.1,0-.1.6,0,.8.2.5.4.9.4,1.1,0,.5.1.9,0,1.4-.3,1.1,1.7,1.2.1,2.9-.7.8-.5,2.4-1.5,3.2l-.1.2c.3,1.8-1.5,2.4-1.7,3.8,0,.1-.3.1-.3.3-.4.7.8,1.2-.2,2.1-.7.6-.5,1.3-.3,2,.1.4-.1,1-.2,1.4-.2.9-.8,1.8-.5,2.7.1.3-.1,1.4-.8,1.1-.1,0-.2.2-.3.3-.5,1.2-1.1,1.4-2,1.5-.6,0-.7.6-.3,1.3.1.1.1.2.2.4.2.5.3.9-.4.7-.1,0-.7,1.9-.6,2.1.3.8.3,1.5-.4,2.2-.2.2,0,.9-.2,1.2-.2.2-.6.2-.8.4-.2.1-.3.3-.5.5-.3.5.5,1.1-.2,1.6-.5.3-.5.7-.4,1.3.1.4-.3,1-.3,1.5-.1.9-1.1,2-.2,2.9.3.3-.4,1.6-1.3,2.7,0,.1-.2.1-.2.1,0,.8.2,1.8,0,2.3-.4.7-.8,1.1-.6,2,0,.2-.1.5-.1.7,0,.9.1,1.8-.2,2.6-.2.5-.9.7-1.4,1.1-.2.1-.4.4-.5.7-.2.8-1.1,1.2-.9,2.2.1.5-.7,1.5.2,1.8.4.1.2.5-.1.6-.8.3-.5,1-.6,1.6,0,.4-1,.8-.1,1-.1.2-.1.5-.2.5-.7.4-.7.8-.4,1.5.1.3,0,1.2-.2,1.4-.7.7-.3.7.1.8.7.2.3.4,0,.9-.2.3-.6,1,0,1.5.4.3,0,1.8-.6,1.9-.5.2-.4.2-.3.7,0,.4-.4.9-.4,1.4s0,1.1.2,1.4c.5.8-.5,1.9-.1,2.7,0,0-.2.4-.3.5-.4.4-.8.7-1.2,1.1-.1.1-.3.4-.3.5.3,1.1-.1,1.2-.7,1.1-.1,0-.3.1-.5.2.1.3.2.7.3.8.4.4.5.4.1.7-.8.7-1.6,1.7-1.6,2.9,0,1.1-.2,1.5-.8,2.1-.2.1-.3.8-.3.8.3.3.9.5.2,1.2-.6.6,0,.8-.1,1.3-.3.7-.9-.1-1,.9-.2,1.7-1.2,2.6-2.2,3.9l-.1-.2c-.1.1-.2.2-.2.3,0,0,0,.1.2,0-.1.1,0,.1.1,0h0c.2,0,.3.2.3.3-.4,1.2-.6,1.9-.5,2.7,0,.1.1.2.1.2-.3.4-.7.8-.8,1.2s.2.8.3,1.2c-.1,0-.3,0-.3.1-.2.2-.5.5-.5.7.1.7.2,1.4.4,2,.1.3.5.4.8.6-.2.3-.5.8-.5,1,.4,1.2-.9.9-.9,1.7-.2-.1-.5-.1-.7-.1-.1,0-.4.2-.4.3,0,1.6-.2,3.2-1.2,4.6,0,.1-.1.2-.1.2.3,1.5-.7,2.3-1.2,3.5-.4,1-.8,2.2-.5,3.3,0,0-.2.2-.4.3,0-.1-.1-.2-.2-.3,0,0-.1.1,0,.3-.1-.1-.1,0,0,.1h0c.3,1.2.2,2.2-.4,3.2-.1.1-.1.4-.2.5.3,0,.6.2.4.8-.1.2-.4.2-.6.3-.1.1-.1.4-.1.5,0,.7,0,1.5.2,2.1.3.9-.8,1.6-.3,2.4,0,0-.2.3-.3.3-.5-.3-.6.5-.8.8-.7.7-.5,1.9-.9,2.7-.4.8-1,1.5-.5,2.5-.6.6.4,1.4-.4,2,0,0,0,.9.5.8h.4c-.6.8.5,1.8-.5,2.5,0,0-.1.1-.1.2.2.4,1.1.4.2,1.4-.3.4.2,1.1-.5,1.3,0,.3,0,.6.1.8.2.4.1,2.1-.2,2.5-.2.3-.8-.2-.8.7,0,.3.5.5.5.7-.1.4-.4.9-.6,1.3-.2.1-.4.3-.4.3,0,.6,0,1.2.1,1.6s.8.3.4,1c-.2.2-.7.1-1,.1-.2,0-.3.1-.5.2.1.1.3.2.4.4.1.3.1.8.2,1.1.1.5,0,.6-.3.5s-.6-.1-.9-.2c-.3-.1-.6,0-.7.6-.1.4-.2,1.1-.3,1.2-.7.6-.9,1-.4,1.9.2.4,0,1.2-.5,1.5-1.2,1-1.9,2.5-2.1,4.4-.1,1.2-.8,2.4-.4,3.6-.4.9-.7,1.9-1.1,2.7-.4.7-.4,1.4-.5,2.2,0,1.1-.3,2.2-.5,3.4,0,.1-.2.3-.3.3-.2.1-.8-.2-.4.5.4.7.2,1.4,0,2.2-.4,1.9-.7,3.7-.5,5.6.1.5.2,1.8-.8,1.9v.5c.6,0,.5.8.3,1.1-.9,1.1-.6,2.5-.9,3.8s-.4,2.6-1,3.6c-.5.8,0,.6.2.7.3.1.9,0,.2.8-.5.5-1.2,1-.1,1.5v.4c-.4.4-.3.7-.3,1.3.1,1-.1,2-.8,2.8-.9,1.1-1.8,2.4-.8,4,0,0-.1.3-.2.4-1,.7-1.3,1.7-1.2,3.1.1.6.2,1.3.2,1.9,0,.4-.1,1-.3,1.2-.9,1.3-.3,2.4-.2,3.5,0,.6.5,1.1-.2,1.7,0,0,.2.6.1.8-.2.6.7,1,0,1.6-.6.5.3,1-.1,1.5-.1.1-.2.6-.3.6-.9,0-.7.5-.5,1.3.1.3-.2.9-.3,1.3-.5-1-.5-.3-.5.4,0,.4.1.8.2,1.2.3.9-.2.5-.4.6-.1,0-.3.3-.3.3.3.8-.3,1.5-.3,2.2s.2,1.4.2,2.1c-.8.5-.1,1.1-.2,1.7-.2,1.4-.7,2.5-1.2,3.6-.2.5-.5.8-.2,1.3v.4c-1.1.5-.6,1.7-.7,2.6,0,.6.2,1.1-.3,1.7-.2.2-.2.7-.2,1-.2,2.6-1.3,4.9-1.6,7.5-.1.8-.3,1.6.2,2.2.3.4-.1.5-.2.8-.1.4-.2.9-.2,1.2,0,.4.4,1.1.3,1.2-.5.6-.2,1.5-.6,2-.9,1.4-.6,3.1-1,4.6,0,.1.1.4.2.5.1.1.2.1.3.2-.1.1-.2.2-.3.4-.3.2-.6.4-.8.7-.1.1-.1.7-.1.7.7.2.2.8.1,1.3,0,1-1,2.2.2,2.9-.1,1.3,0,2.6-.7,3.8-.2.3-.4.7-.6,1-.5.7.3,1.4-.2,2.3-.3.5-.4,1.6-.2,2.5.1.7-.2,1.9-.6,2.5-.7,1.4-.6,2.9-.9,4.3-.2.9,0,2-.7,2.7-.1.1-.2.4-.1.5.5,1.9-.4,3.8-.3,5.7,0,.8-.9,1.2-.3,2,0,.1-.1.2-.2.2-.9-.2-.2,1.4-.8,1.5,0,.2.1.6.1.6.7.1.4.4.1.8-.1.1-.1.2-.2.3-.1.1-.2.1-.3.1-.5,0-.1.3,0,.5.2.3.1,1,.7.9.3,0,.4.7.1.9-.3.1-.4.2-.5.7-.2.8.6,1.2.2,2.2-.2.5-.2,1.5-.2,2.4,0,.2,0,.4.1.5.3-.2.7-.2,1-.4.3-.3.6-.5.5-.9-.1-.5.3-.8.8-.6.4.2.8.1.9-.2.2-.7.7-.5,1-.8.2-.2.5-.3.7-.4.2,0,.4-.1.6-.2.4-.1.7-.4.6-.9,0-.1.2-.2.2-.2.6-.2.7-.8.7-1.4,1.2-.8,1.6-2.5,2.1-3.8.2-.6.1-.9.6-.6,0,0,.3-.2.3-.3,0-1.1,1.1-1.6,1.2-2.5.1-.7.2-1.2.9-1.4.1,0,.2-.3.2-.5.1-.5.1-1.4.3-1.5.7-.5.1-1.2.7-1.7.4-.3.5-.8.7-1.3.3-.6,1-1.2,1.6-1.6.5-.4,1-1,.8-1.4-.6-1.3,1.1-2.3,1-3.5,1-.1.4-1.7,1.3-2,0,0,0-.8.2-1.1.3-.8.8-1.6,1.1-2.5.4-1,1.2-2,1.1-3.1,0-.1.1-.3.2-.5.5-.7,1.2-1.5,1.3-2.1.1-.9.4-1.6.8-2.4.1-.2.2-.5.3-.7.4-.5,1.1-.3,1.1-1.5,0-.4.7-1.3,1.2-1.8.9-.9,1.2-1.8.9-2.9-.1-.4,0-.9.1-1.4.2-.9.8-.3.9-.6.4-.7,1.4-1,1.3-2.3,0-.6.6-1.5.7-2.2.1-.5,1.4-.9.4-1.5-.1,0,0-.2.7-.2.2,0,.3-.1.5-.1-.1-.1-.2-.3-.4-.4-.1-.1-.3,0-.3-.2,0-.1.1-.3.2-.5.6.3.8-.1.8-.9,0-.6.2-1,.7-1.5.3-.3.2-1.2.5-1.5,1.1-1,1.3-2.5,1.9-3.7.3-.7.6-1.5,1.1-2.1.3-.4.2-.5.2-.8-.1-.5-.2-.8.4-1.1.7-.4,0-1.3.7-2,.4-.4,1-1.6.9-2-.2-.9,1.2-1.3.6-2.1.1-.1.2-.2.3-.2.2,0,.5.3.5-.3-.1-1.1.1-2,.9-2.8.5-.5-.2-1,.4-1.5.3-.3,0-.9.6-1.2.3-.2.3-1,.4-1.6,0-.4.6-.8.8-1.2.3-.5.6-1.1.3-1.7,1.3-1.6,1.7-3.8,2.5-5.7.5-1.1.5-1.2.1-2.3.3.1.5.4,1-.4.3-.6-.3-1.3.6-1.7.4-.2-.1-1.2.6-1.6.1,0,.2-.4.1-.5-.5-1-.1-1.5.8-2,.3-.2.9-1.1.9-1.4-.1-.6.4-.9.4-1.1.1-1.6.7-3,1.5-4.3l.9-3.8c.1-.6,0-1.5.9-1.4.1,0,.5-.6.5-.7-.3-.8.2-1.5.5-2.2.5-1.1.7-2.3,1.4-3.4.5-.8.5-2.2.9-3.4.5-1.5,1.1-2.9,1.2-4.5.1-1.2.2-2.6,1.4-3.4.1-.1.3-.5.3-.7,0-1.5.9-2.5,1.5-3.7.1-.2.1-.4.1-.6.2-.9.3-1.8,1-2.6.2-.3.3-.9.4-1.4v-.7c-.1-.8,1.3.4.8-1-.3-.8.1-1.5.3-2.2s.5-1.4.7-2l.7-2.3.7-2.1c.2-.8.4-1.6,1.1-1.9.1,0,.3-.4.2-.5-.6-1.5.5-3,.9-4.5.1-.4.3-.9.4-1.4.2-.7.2-1.7.9-2.1.7-.5.8-.8.2-1.2v-.2c.1-.4,1,.5.7-.8-.1-.4.5-1.5.3-1.7-.5-.6.8-.9.3-1.4.3-1.4.4-2.8,1.7-3.6.1-.1.2-.6.1-.9-.1-.2-.8,0-.1-.7.1-.1.2-.2.3-.3.7-.6.8-.6.8-1.9.1-1.2,0-2.3.9-3.2.2-.2.1-.8.2-1.2,0-.2,0-.6.1-.7,1.1-1,1-2.6,1.5-3.9.2-.5.2-1.2.8-.9,0,0,.2-.3.2-.4.1-.5.1-1,.2-1.5.2-.8.6-1.5.8-2.2.1-.7,0-1.5.1-2.2.1-.5.5-1.1.7-1.6.1-.5.2-1.1.2-1.6.1-1.1.2-2.2,1-3.1.3-.3.5-1.1.6-1.6.2-.7.2-1.5.2-2.2,1-.2.2-1.4.8-2,.4-.5.5-1.5.7-2.2.2-.8.4-1.6.6-2.4.2-.8.5-1.4,1.1-1.9.4-.3.7-.9.9-1.4.1-.3.1-.7.2-1-.2.1-.4.2-.6.4-.1.1-.2.2-.3.3,0-.2-.1-.4,0-.6,1.5-5.8,2.9-11.6,4.5-17.3.3-1.2.4-2.4.8-3.5.2-.4.3-.9.5-1.1.4-.4-.3-.9.3-1.2.1,0,.2-.5.3-.6.2-.2.5-.3.8-.4-.2-.2-.5-.5-.5-.5.6-1.2-.4-2.7.8-3.8.1-.1.1-.5.2-.7.5-1,0-2.1.7-3.3.5-.7.8-2.1.6-3.3,0-.3.5-.8.5-1.2.3-1.4,1.1-2.9.7-4.3.6-.7.5-1.6.6-2.5.2-1.1.3-1.8-.3-2.6-.3-.4.2-.7.7-.7v.1c0,.1.1.2.2.3,0,0,.1-.1,0-.3.1.1.1,0,0-.1.1-.6.3-1.1.6-1.6.2-.4.6-.8.4-1.4.6-.4.6-.9.3-1.5,0-.1.5-.7.5-1,0-.4-.3-.7-.4-1.1,0-.2,0-.6.1-.7.8-.8.7-1.9,1-2.9.3-.9.4-2,.8-2.8.3-.7.1-1.7.8-2.3.1-.1-.1-.8.1-1,.3-.4.5-.6.3-1.1-.3-.6.5-.7.5-1.2-.1-.4-.1-.8-.1-1.2,0-.7.7-1.1.5-2-.1-.6.3-1.5.5-2.3.2-1.1.8-2.2.4-3.3-.1-.2.1-.7.2-1,.2-.5.5-.9.6-1.3.2-.4.3-.9.3-1.3,0-.6.5-.6.5-1.2.1-.8.1-1.6.3-2.4.3-1,.5-2.1.7-3.2l.6-2.9c.1-.4.2-.9.3-1.3.4-1.2.3-2.4-.1-3.4-.3-.9,0-.8.4-.7,0,0,.2-.3.1-.3-.5-.8.5-1.2.4-1.7-.1-.8,0-1.2.5-1.6.4-.3.1-.4-.1-.6-.4-.6-.3-1.3.2-1.5.3-.1.5-.2.7-.7.3-1,.2-2.1.8-3,.1-.1.1-.3.1-.4-.7-1.1-.2-1.8.6-2.4-.4-.9.4-1,.6-1.4.2-.5.3-1.2.5-1.7.5-1.1,1.5-4.2,1.3-5.3-.1-.7,0-1,.4-1.5.5-.7.8-1.6,1.1-2.9.1-.1.3-.1.3-.2.1-.2,0-.4-.2-.3,0-.2,0-.1-.1,0-.7-.2-.1-1.1,0-1.9.1-.3.4-.5.5-.8.1-.9.7-1.8.3-2.8.5-.4,1-1,1.3-1.6.6-3.2,1.2-6.3,1.9-9.5-.1-.2-.2-.3-.1-.4.1-.5.3-1,.5-1.4,2-10.6,4-21.2,5.8-31.8,1.1-5.7,1.9-11.5,2.2-17.4v-.5c0-.5.1-1,.1-1.6.3-6.8-.2-13.6-1.6-20l-2.7-12.3-7.8,9.9c-.7.8-1.3,1.7-2.1,2.5h0Zm-111,419.3c-.1,0-.2.1-.3.1v.1h.4s0-.1-.1-.2h0Zm-82.7,122.9c.1-.1.2-.2.4-.3,0-.1.1-.1.1-.2,0-.2-.1-.2-.2-.3-.2.2-.4.5-.7.7.2,0,.3,0,.4.1h0Zm48.4,61.4l.1,1c0-.1,0-.2.1-.2-.1-.2-.2-.5-.2-.8h0Zm-302.9-201.5v-.3c-.1.1-.1.3-.1.4q0-.1.1-.1Zm-23.8,108.6l.3-.8c-.1.2-.2.3-.2.3,0,.2-.1.4-.1.5h0Zm173.4-87c0,.2,0,.5-.1.7-.1.7-.1,1.5-.1,2.3,0-.1.1-.2.1-.4.1-.8.2-1.6.1-2.6.1.1,0,0,0,0Zm-160.6,34.8l1.2-3c0-.6,0-1.2.1-2.4-.4,1.4-.7,2.2-.9,3.1-.3.7-.3,1.5-.4,2.3Zm-90.8-45c.3-.4.8-.9,1.1-1.3.5-.8,1-1.7,1.5-2.5-.5.6-.9,1.1-1.6,1.9-.4.7-.7,1.3-1,1.9h0Zm13.9-19.7c0,.2.4-.3.7-.4.4-.7.9-1.5,1.1-1.8-.7.5-.9.6-1.2.8-.2.4-.6,1.1-.6,1.4h0ZM645.78,4.62c.3.1.7.2,1,.4-.3-.3-.5-.5-.8-.7-.3-.1-.7-.3-.9-.3-.1,0,.4.4.7.6h0Zm-63.4,46.1l-.6,1.4.1.1c.3-.6.6-1.2.8-1.7.1-.2-.2.1-.3.2Zm-31.4,74.1c-.1.2-.3.5-.4.8-.1.5-.3,1-.4,1.5.1-.2.3-.5.4-.7.1-.6.2-1.1.4-1.6h0Zm-149.3,466c.2-.2.4-.3.6-.5-.3.1-.5.1-.7.1-.2.2-.5.3-.5.4-.1.1.4,0,.6,0h0Zm-256.9,31.8l-.2.6v.3c.1-.2.2-.4.3-.6-.1,0-.1-.2-.1-.3h0Zm-73.9-173.8s.3-.4.5-.6c.1-.3.2-.6.3-.9-.2.2-.4.5-.6.7-.1.3-.2.6-.2.8h0Zm82.3-66.8l-.1,1.4h.2c.1-.6.2-1.3.2-1.8,0-.1-.2.3-.3.4Zm-26,298c.1.1.6.2.9.3.3,0,.9,0,.9-.1-.1-.1-.6-.2-.9-.3-.3,0-1,0-.9.1h0Zm1.7-.7c.1,0-.6-.1-.8-.2-.3.1-.7.1-1,.2.4.1.7.1,1,.2.3,0,.7-.1.8-.2Z" style="fill:currentfill"/></g></svg>