<?xml version="1.0" encoding="UTF-8"?><svg id="Layer_2" xmlns="http://www.w3.org/2000/svg" xmlns:xlink="http://www.w3.org/1999/xlink" viewBox="0 0 450 150"><g id="Layer_1-2"><rect width="450" height="150" rx="11.19" ry="11.19" style="fill:#fffae3; stroke-width:0px;"/><path d="M148.18,37.71c.32-1.23.11-2.1-1.42-2.73-2.71-1.14-3.2-2.82-2.54-5.45.66-2.65,2.29-3.96,5.36-3.96,3.62,0,4.54,1.67,3.9,4.13-.13.45-.23.91-.38,1.44-.42-.02-1.08-.04-1.7-.04-.51,0-1,0-1.33.02.11-.4.23-.76.32-1.14.23-1.02.02-1.55-1.1-1.55-.93,0-1.4.42-1.61,1.27-.28,1.08-.21,1.89,1.46,2.67,2.33,1.06,3.14,2.63,2.44,5.4-.68,2.76-1.93,4.15-5.26,4.15-3.77,0-4.77-1.84-4.17-4.24.15-.57.28-1,.42-1.46.42.04,1.08.08,1.74.08.55,0,1.04,0,1.42-.04-.11.32-.17.61-.25.87-.32,1.36-.13,1.91,1.06,1.91.97,0,1.42-.4,1.65-1.33Z" style="stroke-width:0px;"/><path d="M163.55,25.8c-.13,2.01-.95,11.89-1.08,15.9h-3.82c.13-.61.32-1.87.51-3.43h-3.14c-.57,1.5-1.02,2.76-1.25,3.43h-3.73c1.8-3.96,5.93-13.92,6.74-15.9h5.77ZM159.5,35.5c.19-1.7.38-3.45.53-4.98.04-1,.17-2.06.28-2.84h-.13c-.3.78-.72,1.84-1.17,2.88-.61,1.5-1.29,3.26-1.95,4.94h2.44Z" style="stroke-width:0px;"/><path d="M180.21,25.8c-.55,2.08-1.17,4.45-2.04,7.93-.85,3.37-1.4,5.68-1.93,7.97h-3.41c.68-2.48,1.14-4.24,1.8-6.82.32-1.29.81-2.86,1.23-4.37h-.06c-.59,1.44-1.23,2.92-1.7,3.86l-3.6,7.33h-1.48l.04-7.44c0-.97.11-2.44.21-3.79l-.08.02c-.34,1.53-.59,2.97-.93,4.39-.66,2.61-1.04,4.37-1.61,6.82h-3.09c.62-2.29,1.21-4.6,2.06-7.97.87-3.48,1.44-5.85,1.93-7.93h4.43c-.02,1.4-.13,3.98-.13,6.49-.04.74-.17,1.82-.28,2.82h.08c.42-1.02.85-2.06,1.19-2.8,1.19-2.5,2.44-5.09,3.09-6.51h4.28Z" style="stroke-width:0px;"/><path d="M200.01,25.8c-1.48,3.6-5.28,13.73-6.15,15.9-.47-.02-1.17-.04-1.97-.04-1.1,0-1.91.02-2.27.04.15-1.12.64-4.45,1.06-7.25.21-1.36.49-3.01.72-4.43h-.06c-.42,1.42-.93,3.14-1.44,4.47-1.02,2.78-2.2,6-2.65,7.21-.53,0-1.36-.04-2.16-.04-1,0-1.61.02-1.93.04.21-2.4,1.48-12.29,1.74-15.9h3.58c-.25,1.23-1.04,5.83-1.53,9.18-.19,1.1-.38,2.25-.53,3.16h.11c.3-.93.66-2.06,1.06-3.18,1.14-3.24,2.73-7.69,3.18-9.16.53.02,1.46.02,2.01.02s1.4,0,1.93-.02c-.25,1.36-1.04,5.87-1.5,9.2-.17,1.21-.36,2.31-.53,3.22h.11c.3-.93.64-2.01,1.08-3.22,1.12-3.29,2.63-7.69,3.09-9.2h3.05Z" style="stroke-width:0px;"/><path d="M208.22,25.8c-.13,2.01-.95,11.89-1.08,15.9h-3.82c.13-.61.32-1.87.51-3.43h-3.14c-.57,1.5-1.02,2.76-1.25,3.43h-3.73c1.8-3.96,5.93-13.92,6.74-15.9h5.77ZM204.17,35.5c.19-1.7.38-3.45.53-4.98.04-1,.17-2.06.28-2.84h-.13c-.3.78-.72,1.84-1.17,2.88-.61,1.5-1.29,3.26-1.95,4.94h2.44Z" style="stroke-width:0px;"/><path d="M215.79,25.8c-.34,1.19-1.17,4.35-2.06,7.88-.36,1.4-.76,3.07-1.06,4.32.93,0,2.12-.02,3.18-.06-.15.57-.32,1.21-.47,1.82-.17.66-.34,1.34-.47,1.93h-6.85c.28-1.04,1.19-4.56,2.04-7.95.93-3.73,1.61-6.44,1.93-7.95h3.75Z" style="stroke-width:0px;"/><path d="M230.46,25.8c-1.5,2.37-3.84,6.34-5.68,8.2.4.57.59,1.36.76,2.29.53,2.56.85,4.62,1.02,5.4h-3.2c-.49,0-.68-.13-.74-.55-.25-1.99-.66-4.49-1.04-6h-.25c-.59,2.4-1.19,4.73-1.59,6.55h-3.67c.59-2.18,1.21-4.56,2.04-7.95.85-3.39,1.44-5.81,1.93-7.95h3.67c-.55,1.95-1.25,4.73-1.89,7.29h.04c.55-.72,1.08-1.48,1.63-2.27,1.29-2.14,2.25-3.88,2.82-5.02h4.15Z" style="stroke-width:0px;"/><path d="M239.57,25.8c-.13.38-.3,1.06-.42,1.57-.13.59-.32,1.36-.42,1.76-1.67-.02-3.37-.04-4.75-.04l-.74,3.03c1.63,0,3.24-.02,4.64-.06-.19.7-.59,2.25-.76,3.01-1.34-.04-2.97-.06-4.6-.06l-.81,3.16c1.4,0,3.16-.02,4.79-.02-.13.42-.32,1.19-.49,1.8-.13.57-.32,1.31-.4,1.76h-8.31c.55-2.12,1.19-4.56,2.01-7.95.85-3.37,1.48-5.93,1.95-7.95h8.31Z" style="stroke-width:0px;"/><path d="M246.4,25.8c2.88,0,4.28,1.57,3.37,5.17-.68,2.8-1.74,3.98-3.75,4.32l-.02.11c1.38.25,1.78.91,1.72,2.9-.02,1.19-.11,2.63-.13,3.39h-3.05c-.53,0-.57-.23-.61-1.31.36-3.56.23-4.05-.76-4.05-.44,0-.53,0-1.04.02-.51,2.16-.91,4.03-1.14,5.34h-3.67c.59-2.29,1.19-4.56,2.04-7.95.85-3.37,1.4-5.66,1.93-7.95h5.13ZM245.08,28.66c-.21,0-.66.02-1.08.04-.42,1.72-.85,3.41-1.25,5.02.34,0,.85,0,1.44.02.95,0,1.61-.68,2.03-2.35.55-2.23.06-2.73-1.14-2.73Z" style="stroke-width:0px;"/><path d="M253.71,44.28c-.62,0-1.21,0-1.82.02.74-2.73,1.53-6.02,2.59-10.26.93-3.75,1.65-6.51,2.16-8.9.61.02,1.21.02,1.78.02s1.19,0,1.8-.02c-.62,2.37-1.34,5.13-2.27,8.88-1.04,4.22-1.87,7.52-2.5,10.28-.57-.02-1.17-.02-1.74-.02Z" style="stroke-width:0px;"/><path d="M272.69,36.18c-.93,3.71-2.57,5.74-5.66,5.74-3.37,0-5.11-2.31-3.48-8.77,1.36-5.47,3.39-7.59,6.63-7.59,3.43,0,4.45,2.42,3.71,5.53-.11.34-.21.72-.32,1.14-.47-.02-.95-.02-1.44-.02s-.91,0-1.38.02c.11-.42.21-.76.3-1.06.57-2.39.02-2.92-1.21-2.92-1.38,0-2.31.76-3.43,5.34-1.19,4.79-.4,5.62.93,5.62,1.19,0,1.97-.93,2.5-3.12.08-.23.13-.51.19-.81.49.02.93.02,1.42.02s.95,0,1.44-.02l-.21.89Z" style="fill:#ff950a; stroke-width:0px;"/><path d="M281.93,25.8c2.9,0,4.3,1.72,3.46,5.21-.66,2.65-1.74,3.94-3.75,4.32l-.02.13c1.25.25,1.61.89,1.65,2.84.04,1.29.04,2.67.08,3.39h-2.56c-.47,0-.47-.21-.59-1.44.13-3.56-.04-4.05-1.23-4.03-.64,0-.64-.02-1.42,0-.53,2.25-.98,4.15-1.21,5.47h-3.05c.59-2.31,1.19-4.56,2.04-7.95.85-3.37,1.4-5.66,1.93-7.95h4.68ZM280.95,28.26c-.3,0-.95.02-1.48.04-.47,1.91-.93,3.79-1.36,5.57.4,0,1.1.02,1.93.02,1.14,0,1.97-.83,2.42-2.59.61-2.46,0-3.05-1.5-3.05Z" style="fill:#ff950a; stroke-width:0px;"/><path d="M297.11,25.8c-.08.28-.23.83-.32,1.23-.11.42-.28,1.08-.34,1.4-1.91-.02-3.77-.02-5.3-.02l-1,4.01c1.84,0,3.6,0,5.19-.04-.17.55-.51,1.89-.66,2.48-1.5-.02-3.31-.04-5.13-.04-.4,1.63-.76,3.01-1.06,4.22,1.55,0,3.48-.02,5.32-.04-.11.32-.25.95-.38,1.42-.08.4-.23.98-.3,1.29h-8.22c.55-2.06,1.19-4.56,2.03-7.95.85-3.37,1.5-6.06,1.93-7.95h8.22Z" style="fill:#ff950a; stroke-width:0px;"/><path d="M306.2,25.8c-.02,1.99-.51,11.91-.47,15.9h-3.16c.11-.61.23-2.03.36-3.77h-3.94c-.72,1.67-1.29,3.07-1.57,3.77h-3.16c1.93-3.92,6.44-13.92,7.35-15.9h4.58ZM303.53,27.41c-.32.76-.78,1.84-1.38,3.14-.66,1.55-1.46,3.39-2.2,5.13.57.02,1.14.02,1.57.02s1.02,0,1.59-.02c.13-1.76.25-3.62.34-5.17.04-1.25.13-2.33.17-3.09h-.08Z" style="fill:#ff950a; stroke-width:0px;"/><path d="M317.73,25.8c-.11.32-.23.83-.34,1.29-.11.42-.23.98-.32,1.34-.95-.02-1.89-.02-2.73-.02-1.29,5.11-2.99,12.06-3.24,13.31-.4-.04-1.06-.04-1.5-.04s-1.06,0-1.48.04c.36-1.23,2.1-8.2,3.39-13.31-.85,0-1.8,0-2.78.02.11-.36.25-.91.36-1.34.11-.47.23-.95.3-1.29h8.35Z" style="fill:#ff950a; stroke-width:0px;"/><path d="M315.32,41.69c.57-2.12,1.21-4.58,2.03-7.95.85-3.39,1.48-5.85,1.93-7.95h3.01c-.57,2.08-1.19,4.54-2.04,7.93-.85,3.37-1.46,5.83-1.93,7.97h-3.01Z" style="fill:#ff950a; stroke-width:0px;"/><path d="M334.12,25.8c-1.82,3.92-5.96,13.54-6.99,15.9-.55-.02-1.33-.04-2.18-.04-1.19,0-1.84.02-2.25.04.15-2.35.93-12.48.95-15.9h3.26c-.25,1.72-.83,6.76-1.19,10.49-.11,1.21-.19,2.25-.28,3.05h.13c.32-.83.72-1.87,1.21-3.03,1.5-3.75,3.56-8.97,4.09-10.51h3.24Z" style="fill:#ff950a; stroke-width:0px;"/><path d="M343.66,25.8c-.08.28-.23.83-.32,1.23-.11.42-.28,1.08-.34,1.4-1.91-.02-3.77-.02-5.3-.02l-1,4.01c1.84,0,3.6,0,5.19-.04-.17.55-.51,1.89-.66,2.48-1.5-.02-3.31-.04-5.13-.04-.4,1.63-.76,3.01-1.06,4.22,1.55,0,3.48-.02,5.32-.04-.11.32-.25.95-.38,1.42-.08.4-.23.98-.3,1.29h-8.22c.55-2.06,1.19-4.56,2.03-7.95.85-3.37,1.5-6.06,1.93-7.95h8.22Z" style="fill:#ff950a; stroke-width:0px;"/><path d="M353.77,25.8c3.73,0,5.34,1.97,3.73,8.44-1.4,5.57-3.09,7.46-6.78,7.46h-4.94c.62-2.18,1.19-4.56,2.04-7.93s1.5-6.04,1.93-7.97h4.03ZM353.37,28.45c-.45,0-.87.02-1.29.02-.42,1.55-.95,3.56-1.38,5.36-.61,2.44-1.02,4.03-1.27,5.19.42.02.78.04,1.25.04,1.97,0,2.88-.61,4.01-5.19,1.14-4.58.36-5.43-1.31-5.43Z" style="fill:#ff950a; stroke-width:0px;"/><path d="M369.76,25.8c-.08.28-.23.83-.32,1.23-.11.42-.28,1.08-.34,1.4-1.91-.02-3.77-.02-5.3-.02l-1,4.01c1.84,0,3.6,0,5.19-.04-.17.55-.51,1.89-.66,2.48-1.5-.02-3.31-.04-5.13-.04-.4,1.63-.76,3.01-1.06,4.22,1.55,0,3.48-.02,5.32-.04-.11.32-.25.95-.38,1.42-.08.4-.23.98-.3,1.29h-8.22c.55-2.06,1.19-4.56,2.03-7.95.85-3.37,1.5-6.06,1.93-7.95h8.22Z" style="fill:#ff950a; stroke-width:0px;"/><path d="M378.09,31.05c-.51,0-1.04,0-1.38.02.11-.4.23-.81.32-1.21.28-1.21,0-1.82-1.46-1.82-1.23,0-1.82.51-2.08,1.5-.3,1.1-.21,2.06,1.63,2.92,2.4,1.12,3.31,2.9,2.65,5.49-.61,2.52-1.87,3.98-5.04,3.98-3.67,0-4.81-1.95-4.2-4.41.15-.55.23-.89.34-1.25.32.06.81.08,1.33.08.59,0,1.1,0,1.55-.04-.08.28-.15.55-.23.78-.4,1.7-.13,2.33,1.42,2.33,1.31,0,1.87-.47,2.14-1.55.32-1.29.08-2.37-1.61-3.09-2.8-1.23-3.41-3.07-2.78-5.55.57-2.35,2.25-3.71,5.17-3.71,3.54,0,4.49,1.78,3.86,4.22-.11.4-.21.83-.34,1.29h-1.29Z" style="fill:#ff950a; stroke-width:0px;"/><path d="M378.73,41.69c.57-2.12,1.21-4.58,2.03-7.95.85-3.39,1.48-5.85,1.93-7.95h3.01c-.57,2.08-1.19,4.54-2.04,7.93-.85,3.37-1.46,5.83-1.93,7.97h-3.01Z" style="fill:#ff950a; stroke-width:0px;"/><path d="M396.32,30.61c-.04.25-.13.53-.21.83-.32-.02-.85-.04-1.36-.04-.55,0-1.1,0-1.48.04.11-.3.17-.55.21-.78.47-1.78,0-2.52-1.27-2.52-1.46,0-2.48.95-3.6,5.47-1.12,4.51-.83,5.81.93,5.81,1.42,0,2.08-.91,2.8-4.07-.74.02-1.61.02-2.25.04.06-.21.17-.66.23-.89.13-.53.23-.95.3-1.29.81.02,1.61.02,2.2.02.76,0,1.76.02,2.78-.02-1.21,5.87-2.44,8.73-6.38,8.73s-4.88-3.07-3.43-8.9c1.31-5.26,3.39-7.46,6.76-7.46s4.43,2.52,3.77,5.04Z" style="fill:#ff950a; stroke-width:0px;"/><path d="M409.66,25.8c-.36,1.46-1.19,4.56-2.01,7.93-.89,3.54-1.48,5.91-1.97,7.97h-3.07c-.13-1.59-.59-5.23-1-8.41-.13-1.44-.19-2.95-.15-4.43-.34,1.8-.66,3.41-1,4.79-1.02,4.18-1.7,6.93-1.95,8.05h-2.67c.53-2.08,1.19-4.56,2.01-7.95.85-3.37,1.5-6,1.95-7.95h3.48c.06,1.19.53,4.98.87,8.33.11,1.1.25,2.4.25,3.67.28-1.53.53-2.99.91-4.47.64-2.5,1.42-5.98,1.74-7.52h2.61Z" style="fill:#ff950a; stroke-width:0px;"/><path d="M420.32,25.8c-.08.28-.23.83-.32,1.23-.11.42-.28,1.08-.34,1.4-1.91-.02-3.77-.02-5.3-.02l-1,4.01c1.84,0,3.6,0,5.19-.04-.17.55-.51,1.89-.66,2.48-1.5-.02-3.31-.04-5.13-.04-.4,1.63-.76,3.01-1.06,4.22,1.55,0,3.48-.02,5.32-.04-.11.32-.25.95-.38,1.42-.08.4-.23.98-.3,1.29h-8.22c.55-2.06,1.19-4.56,2.03-7.95.85-3.37,1.5-6.06,1.93-7.95h8.22Z" style="fill:#ff950a; stroke-width:0px;"/><path d="M427.19,25.8c2.9,0,4.3,1.72,3.46,5.21-.66,2.65-1.74,3.94-3.75,4.32l-.02.13c1.25.25,1.61.89,1.65,2.84.04,1.29.04,2.67.08,3.39h-2.56c-.47,0-.47-.21-.59-1.44.13-3.56-.04-4.05-1.23-4.03-.64,0-.64-.02-1.42,0-.53,2.25-.98,4.15-1.21,5.47h-3.05c.59-2.31,1.19-4.56,2.04-7.95.85-3.37,1.4-5.66,1.93-7.95h4.68ZM426.21,28.26c-.3,0-.95.02-1.48.04-.47,1.91-.93,3.79-1.36,5.57.4,0,1.1.02,1.93.02,1.14,0,1.97-.83,2.42-2.59.61-2.46,0-3.05-1.5-3.05Z" style="fill:#ff950a; stroke-width:0px;"/><path d="M153.34,119.47c-2.83,0-4.15-2.1-4.15-7.21s1.47-6.77,4.17-6.77,4.2,1.65,4.2,6.77-1.39,7.21-4.22,7.21ZM151.75,112.37c0,3.97.58,4.76,1.61,4.76s1.61-.81,1.61-4.76-.58-4.58-1.61-4.58-1.61.69-1.61,4.58Z" style="stroke-width:0px;"/><path d="M165.21,105.68c0,.31-.02.8-.02,1.16,0,.47.02.8.02,1.01-1.3,2.25-2.52,6.68-2.46,11.41-.42-.02-.85-.02-1.25-.02-.49,0-.96,0-1.38.02,0-4.24,1.39-9.27,2.68-11.39-1.47,0-3.04.02-4.49.04.02-.36.04-.72.04-1.1s0-.74-.04-1.12h6.9Z" style="stroke-width:0px;"/><path d="M171.94,112.46c.29.07.53.15.76.25,1.05.54,1.38,1.45,1.38,2.99,0,2.48-1.41,3.77-4,3.77s-4-1.29-4-3.77c0-1.54.33-2.45,1.38-2.99.24-.11.47-.18.76-.24v-.13c-.33-.09-.6-.18-.83-.31-.87-.47-1.27-1.36-1.27-2.92,0-2.41,1.16-3.64,3.97-3.64s3.97,1.23,3.97,3.64c0,1.56-.38,2.44-1.27,2.92-.24.13-.51.22-.83.31v.11ZM171.69,115.28c0-1.41-.53-1.9-1.61-1.9s-1.61.49-1.61,1.9c0,1.59.47,2.06,1.61,2.06s1.61-.47,1.61-2.06ZM168.57,109.38c0,1.52.45,2.03,1.5,2.03s1.52-.51,1.52-2.03c0-1.41-.58-1.83-1.52-1.83s-1.5.42-1.5,1.83Z" style="stroke-width:0px;"/><path d="M182.62,113.96c.43,0,.78-.02,1.12-.02-.02.34-.02.71-.02,1.07,0,.4,0,.74.02,1.12l-1.1-.02c.02,1.14.04,2.16.07,3.15h-2.61c.04-.89.05-2.17.07-3.19h-1.27c-1.03,0-2.43.04-3.62.05.16-1.29.67-8.86.67-10.45h2.59c-.07,1.3-.56,6.03-.65,8.26.56.02,1.25.02,2.3.02,0-1.65-.02-6.56-.04-8.28h2.5c-.04,1.94-.04,3.89-.04,6.77v1.5Z" style="stroke-width:0px;"/><path d="M191.32,105.68c0,.31-.02.8-.02,1.16,0,.47.02.8.02,1.01-1.3,2.25-2.52,6.68-2.46,11.41-.42-.02-.85-.02-1.25-.02-.49,0-.96,0-1.38.02,0-4.24,1.39-9.27,2.68-11.39-1.47,0-3.04.02-4.49.04.02-.36.04-.72.04-1.1s0-.74-.04-1.12h6.9Z" style="stroke-width:0px;"/><path d="M199.54,113.96c.43,0,.78-.02,1.12-.02-.02.34-.02.71-.02,1.07,0,.4,0,.74.02,1.12l-1.1-.02c.02,1.14.04,2.16.07,3.15h-2.61c.04-.89.05-2.17.07-3.19h-1.27c-1.03,0-2.43.04-3.62.05.16-1.29.67-8.86.67-10.45h2.59c-.07,1.3-.56,6.03-.65,8.26.56.02,1.25.02,2.3.02,0-1.65-.02-6.56-.04-8.28h2.5c-.04,1.94-.04,3.89-.04,6.77v1.5Z" style="stroke-width:0px;"/><path d="M203.97,112.44c.47-.85,1.27-1.36,2.41-1.36,2.25,0,3.13,1.2,3.13,3.75,0,3.12-1.23,4.64-3.75,4.64s-4.15-1.47-4.15-7.21c0-4.62,1.16-6.77,4.11-6.77,2.43,0,3.73,1.09,3.73,4v.62c-.38-.04-.72-.04-1.16-.04-.49,0-.91,0-1.2.04.02-.16.02-.33.02-.53,0-1.34-.38-2.12-1.41-2.12-1.12,0-1.74.83-1.76,3.06-.02.62-.05,1.23-.11,1.9l.13.02ZM207.05,114.92c0-1.54-.42-2.1-1.32-2.1s-1.5.54-1.5,2.05c0,1.87.54,2.64,1.45,2.64s1.38-.8,1.38-2.59Z" style="stroke-width:0px;"/><path d="M216.54,112.46c.29.07.53.15.76.25,1.05.54,1.38,1.45,1.38,2.99,0,2.48-1.41,3.77-4,3.77s-4-1.29-4-3.77c0-1.54.33-2.45,1.38-2.99.24-.11.47-.18.76-.24v-.13c-.33-.09-.6-.18-.83-.31-.87-.47-1.27-1.36-1.27-2.92,0-2.41,1.16-3.64,3.97-3.64s3.97,1.23,3.97,3.64c0,1.56-.38,2.44-1.27,2.92-.24.13-.51.22-.83.31v.11ZM216.29,115.28c0-1.41-.53-1.9-1.61-1.9s-1.61.49-1.61,1.9c0,1.59.47,2.06,1.61,2.06s1.61-.47,1.61-2.06ZM213.17,109.38c0,1.52.45,2.03,1.5,2.03s1.52-.51,1.52-2.03c0-1.41-.58-1.83-1.52-1.83s-1.5.42-1.5,1.83Z" style="stroke-width:0px;"/><path d="M225.47,112.66c-.47.83-1.25,1.32-2.43,1.32-2.12,0-3.15-1.27-3.15-3.88,0-3.01,1.23-4.62,3.73-4.62,2.74,0,4.17,1.59,4.17,7.21,0,5.18-1.43,6.77-4.08,6.77s-3.77-1.23-3.77-4.04c0-.24,0-.4.02-.54.36.04.72.05,1.16.05.47,0,.89-.02,1.18-.05v.44c0,1.48.24,2.17,1.41,2.17s1.63-.71,1.76-3.08c.02-.54.04-1.1.07-1.72l-.07-.04ZM225.18,109.99c0-1.68-.51-2.55-1.39-2.55s-1.41.8-1.41,2.54c0,1.63.49,2.21,1.36,2.21s1.45-.56,1.45-2.19Z" style="stroke-width:0px;"/><path d="M234.49,112.46c.31.05.56.13.82.25,1.05.54,1.39,1.45,1.39,2.99,0,2.43-1.39,3.77-3.91,3.77-2.74,0-3.86-1.29-3.86-4.09,0-.24.02-.47.04-.72.36.02.71.02,1.14.02.49,0,.89,0,1.2-.02v.54c0,1.74.38,2.25,1.49,2.25s1.52-.51,1.52-2.08c0-1.47-.49-1.94-1.74-1.94-.36,0-.74,0-1.18.04.02-.31.04-.71.04-1.07,0-.38,0-.65-.02-.94.25,0,.67.02,1.18.02,1.16,0,1.63-.54,1.63-2.03,0-1.34-.53-1.92-1.38-1.92-1.18,0-1.58.65-1.58,2.06,0,.24.02.49.02.78-.31-.04-.71-.05-1.2-.05-.43,0-.78.02-1.16.05v-.96c0-2.37,1.03-3.91,3.93-3.91,2.55,0,3.8,1.32,3.8,3.64,0,1.56-.4,2.43-1.29,2.92-.25.13-.54.22-.89.31v.11Z" style="stroke-width:0px;"/><path d="M245.3,113.96c.43,0,.78-.02,1.12-.02-.02.34-.02.71-.02,1.07,0,.4,0,.74.02,1.12l-1.1-.02c.02,1.14.04,2.16.07,3.15h-2.61c.04-.89.05-2.17.07-3.19h-1.27c-1.03,0-2.43.04-3.62.05.16-1.29.67-8.86.67-10.45h2.59c-.07,1.3-.56,6.03-.65,8.26.56.02,1.25.02,2.3.02,0-1.65-.02-6.56-.04-8.28h2.5c-.04,1.94-.04,3.89-.04,6.77v1.5Z" style="stroke-width:0px;"/><rect x="134.85" y="55.86" width="180.29" height="30.29" rx="15.15" ry="15.15" style="fill:#ff950a; stroke-width:0px;"/><rect x="327.36" y="55.86" width="30.29" height="30.29" rx="15.15" ry="15.15" style="fill:#ff950a; stroke-width:0px;"/><rect x="366.57" y="55.86" width="30.29" height="30.29" rx="15.15" ry="15.15" style="fill:#ff950a; stroke-width:0px;"/><path d="M159.88,64.64c-.2.52-.63,1.81-1.14,3.4.98,0,1.81-.02,1.99-.02-.14.45-.25.94-.4,1.49-.13.53-.24.98-.34,1.5-.18-.02-1.18-.02-2.16-.02l-.29.92c1.01,0,2.03,0,2.23-.02-.14.45-.25.92-.4,1.45-.13.54-.24,1-.34,1.54-.2-.02-1.23-.04-2.37-.04-.42,1.43-.78,2.64-1,3.39h-2.81c.25-.76.69-1.97,1.14-3.39h-1.07c-.43,1.43-.8,2.64-1.01,3.39-.69-.02-.96-.02-1.49-.02h-1.32c.27-.76.69-1.97,1.14-3.37-.94.02-1.74.02-1.96.04.15-.54.27-1,.4-1.54.15-.53.25-1,.33-1.45.22.02,1.18.02,2.16.02l.29-.92c-1,0-1.97,0-2.21.02.15-.53.25-.98.4-1.5.13-.54.25-1.03.34-1.49.25,0,1.25.02,2.35.02.47-1.54.83-2.81,1-3.4h2.79c-.22.52-.6,1.79-1.09,3.4h1.03c.47-1.56.87-2.81,1-3.4h2.81ZM155.12,72.01l.36-1.25h-1.47l-.38,1.25h1.49Z" style="fill:#fffae3; stroke-width:0px;"/><path d="M166.6,64.64c3.06,0,4.42,1.27,3.01,6.92-1.38,5.51-2.81,6.67-5.91,6.67h-4.78c.53-1.92,1.03-3.89,1.74-6.77.72-2.88,1.23-4.98,1.65-6.81h4.29ZM165.75,67.74c-.18,0-.36,0-.54.02-.31,1.12-.63,2.41-.94,3.66-.36,1.43-.62,2.48-.81,3.31.18.02.34.02.53.02.85,0,1.27-.34,1.99-3.31.83-3.31.53-3.69-.22-3.69Z" style="fill:#fffae3; stroke-width:0px;"/><path d="M179.35,64.64c-.11.42-.29,1.12-.45,1.7-.15.63-.33,1.38-.42,1.83-1.23-.04-2.52-.04-3.53-.04l-.4,1.59c1.2,0,2.43-.02,3.44-.05-.2.72-.58,2.26-.78,3.08-.98-.04-2.23-.05-3.41-.05l-.42,1.67c1.03,0,2.39-.02,3.55-.04-.15.49-.34,1.27-.51,1.96-.16.65-.34,1.43-.47,1.94h-7.19c.51-1.9,1.01-3.89,1.72-6.79.72-2.88,1.23-4.96,1.67-6.79h7.19Z" style="fill:#fffae3; stroke-width:0px;"/><path d="M182.19,74.64c.25-1,.13-1.54-1.01-1.99-2.23-.87-2.54-2.16-1.94-4.53.63-2.59,1.99-3.68,4.76-3.68,3.17,0,3.89,1.34,3.35,3.48-.11.42-.24.87-.36,1.36-.45-.04-1.2-.07-1.81-.07-.45,0-.85.02-1.1.02.09-.33.18-.63.24-.91.16-.69.05-1.03-.56-1.03-.51,0-.8.27-.94.85-.22.89-.16,1.41,1.07,1.99,1.96.87,2.54,1.99,1.9,4.55-.63,2.57-1.72,3.75-4.71,3.75-3.31,0-4.04-1.47-3.51-3.5.13-.49.25-.94.4-1.45.51.04,1.2.07,1.92.07.4,0,.8,0,1.07-.02-.11.31-.18.58-.24.8-.2.83-.11,1.21.53,1.21.54,0,.8-.27.96-.91Z" style="fill:#fffae3; stroke-width:0px;"/><path d="M185.68,78.23c.51-1.9,1.01-3.91,1.72-6.79.72-2.88,1.25-4.91,1.67-6.79h3.84c-.49,1.88-1.01,3.89-1.72,6.77-.72,2.88-1.21,4.91-1.67,6.81h-3.84Z" style="fill:#fffae3; stroke-width:0px;"/><path d="M196.19,73.33c.07-.31.27-1.09.36-1.43.13-.49.24-.94.31-1.27.69.02,1.41.02,1.94.02.67,0,1.56,0,2.45-.04-1.25,5.85-2.19,7.79-5.89,7.79s-4.6-1.88-3.24-7.32c1.32-5.27,2.86-6.63,6.03-6.63,3.46,0,4.29,1.54,3.59,4.42-.07.27-.16.52-.25.83-.51-.02-1.14-.04-1.85-.04s-1.29.02-1.78.04c.11-.31.18-.6.24-.81.27-1.07.09-1.45-.43-1.45-.67,0-1.14.69-1.88,3.69-.81,3.26-.72,4.02.15,4.02.56,0,.91-.42,1.3-1.85l-1.03.02Z" style="fill:#fffae3; stroke-width:0px;"/><path d="M212.68,64.64c-.24.89-1.03,3.89-1.74,6.77-.76,3.04-1.29,5.09-1.67,6.81h-3.77c-.04-1.09-.14-2.7-.27-4.17-.02-1.09.02-2.23.07-3.39l-.07.02c-.25,1.36-.51,2.54-.76,3.64-.47,1.97-.81,3.35-.91,3.89h-3.22c.47-1.83,1-3.89,1.7-6.79.72-2.88,1.25-4.94,1.68-6.79h4.08c-.04.81.07,2.9.07,4.82.02.8,0,1.79-.07,2.79h.07c.2-1.14.42-2.21.62-3.08.4-1.58.8-3.37,1.03-4.53h3.15Z" style="fill:#fffae3; stroke-width:0px;"/><path d="M218.03,64.64c3.06,0,4.42,1.27,3.01,6.92-1.38,5.51-2.81,6.67-5.9,6.67h-4.78c.53-1.92,1.03-3.89,1.74-6.77.72-2.88,1.23-4.98,1.65-6.81h4.29ZM217.17,67.74c-.18,0-.36,0-.54.02-.31,1.12-.63,2.41-.94,3.66-.36,1.43-.62,2.48-.82,3.31.18.02.34.02.53.02.85,0,1.27-.34,1.99-3.31.83-3.31.53-3.69-.22-3.69Z" style="fill:#fffae3; stroke-width:0px;"/><path d="M225.07,78.41c-3.71,0-4.64-2.08-3.28-7.63,1.25-5.05,3.06-6.32,5.87-6.32,3.46,0,4.66,1.65,3.3,7.14-1.29,5.16-2.93,6.81-5.89,6.81ZM227.3,71.2c.72-2.9.58-3.5-.13-3.5-.58,0-1.03.51-1.74,3.35-.78,3.13-.62,3.75.07,3.75.6,0,1.03-.58,1.79-3.6Z" style="fill:#fffae3; stroke-width:0px;"/><path d="M242.47,64.64c-.24.89-1.03,3.89-1.74,6.77-.76,3.04-1.29,5.09-1.67,6.81h-3.77c-.04-1.09-.15-2.7-.27-4.17-.02-1.09.02-2.23.07-3.39l-.07.02c-.25,1.36-.51,2.54-.76,3.64-.47,1.97-.82,3.35-.91,3.89h-3.22c.47-1.83,1-3.89,1.7-6.79.72-2.88,1.25-4.94,1.68-6.79h4.08c-.04.81.07,2.9.07,4.82.02.8,0,1.79-.07,2.79h.07c.2-1.14.42-2.21.62-3.08.4-1.58.8-3.37,1.03-4.53h3.15Z" style="fill:#fffae3; stroke-width:0px;"/><path d="M250.73,64.64c-.11.42-.29,1.12-.45,1.7-.15.63-.33,1.38-.42,1.83-1.23-.04-2.52-.04-3.53-.04l-.4,1.59c1.2,0,2.43-.02,3.44-.05-.2.72-.58,2.26-.78,3.08-.98-.04-2.23-.05-3.41-.05l-.42,1.67c1.03,0,2.39-.02,3.55-.04-.14.49-.34,1.27-.51,1.96-.16.65-.34,1.43-.47,1.94h-7.19c.51-1.9,1.01-3.89,1.72-6.79.72-2.88,1.23-4.96,1.67-6.79h7.19Z" style="fill:#fffae3; stroke-width:0px;"/><path d="M256.96,64.64c2.17,0,3.24,1.12,2.59,3.66-.43,1.68-.87,2.3-1.83,2.73-.27.13-.6.2-.98.25l-.02.09c.25.04.49.07.65.16.94.42,1.05,1.61.67,3.19-.67,2.64-1.63,3.5-4.08,3.5h-5.67c.54-1.92,1.03-3.91,1.74-6.79.72-2.88,1.23-4.89,1.65-6.79h5.27ZM254.11,72.28c-.24,0-.51,0-.8.02-.25,1.05-.54,2.21-.76,3.19.27.02.53.02.74.02.67,0,1.01-.27,1.3-1.47.36-1.39.13-1.76-.49-1.76ZM255.89,68.75c.33-1.32.04-1.61-.51-1.61-.24,0-.49,0-.76.02-.24.91-.54,2.06-.81,3.17.27.02.52.02.76.02.63-.02,1.01-.4,1.32-1.59Z" style="fill:#fffae3; stroke-width:0px;"/><path d="M268.58,64.64c-.11.42-.29,1.12-.45,1.7-.15.63-.33,1.38-.42,1.83-1.23-.04-2.52-.04-3.53-.04l-.4,1.59c1.2,0,2.43-.02,3.44-.05-.2.72-.58,2.26-.78,3.08-.98-.04-2.23-.05-3.41-.05l-.42,1.67c1.03,0,2.39-.02,3.55-.04-.14.49-.34,1.27-.51,1.96-.16.65-.34,1.43-.47,1.94h-7.19c.51-1.9,1.01-3.89,1.72-6.79.72-2.88,1.23-4.96,1.67-6.79h7.19Z" style="fill:#fffae3; stroke-width:0px;"/><path d="M276.19,64.64c-.14.52-.34,1.34-.53,2.08-.18.72-.4,1.59-.52,2.17-.53-.02-1.03-.02-1.54-.04-1,4.08-2.08,8.46-2.28,9.38-.53-.05-1.39-.05-2.01-.05s-1.47,0-2.03.05c.27-.92,1.38-5.31,2.41-9.38-.51.02-1.03.02-1.56.04.16-.58.38-1.45.56-2.17.18-.74.38-1.56.49-2.08h7.01Z" style="fill:#fffae3; stroke-width:0px;"/><path d="M283.52,64.64c-.14.52-.34,1.34-.53,2.08-.18.72-.4,1.59-.52,2.17-.53-.02-1.03-.02-1.54-.04-1,4.08-2.08,8.46-2.28,9.38-.53-.05-1.39-.05-2.01-.05s-1.47,0-2.03.05c.27-.92,1.38-5.31,2.41-9.38-.51.02-1.03.02-1.56.04.16-.58.38-1.45.56-2.17.18-.74.38-1.56.49-2.08h7.01Z" style="fill:#fffae3; stroke-width:0px;"/><path d="M291.42,64.64c-.11.42-.29,1.12-.45,1.7-.15.63-.33,1.38-.42,1.83-1.23-.04-2.52-.04-3.53-.04l-.4,1.59c1.2,0,2.43-.02,3.44-.05-.2.72-.58,2.26-.78,3.08-.98-.04-2.23-.05-3.41-.05l-.42,1.67c1.03,0,2.39-.02,3.55-.04-.14.49-.34,1.27-.51,1.96-.16.65-.34,1.43-.47,1.94h-7.19c.51-1.9,1.01-3.89,1.72-6.79.72-2.88,1.23-4.96,1.67-6.79h7.19Z" style="fill:#fffae3; stroke-width:0px;"/><path d="M297.19,64.64c2.45,0,3.64,1.18,2.84,4.38-.62,2.5-1.5,3.41-3.22,3.68l-.02.11c1.3.22,1.7.76,1.54,2.5-.09.94-.27,2.23-.33,2.92h-3.12c-.49,0-.56-.22-.51-.98.51-3.08.45-3.48-.22-3.48h-.49c-.42,1.79-.76,3.35-.94,4.46h-3.71c.51-1.96,1.01-3.89,1.72-6.79.72-2.88,1.2-4.84,1.67-6.79h4.78ZM295,71.27c.65,0,1.01-.43,1.36-1.77.42-1.67.14-1.99-.58-1.99-.11,0-.34,0-.58.02-.33,1.27-.63,2.52-.92,3.73.2,0,.43.02.72.02Z" style="fill:#fffae3; stroke-width:0px;"/><path d="M286.71,115.36c0,1.56.38,2.01,1.63,2.01,1.18,0,1.56-.45,1.56-1.39,0-1.03-.44-1.92-2.03-2.54-2.72-1.07-3.57-2.39-3.57-4.53s1.3-3.42,3.91-3.42c2.84,0,3.93,1.2,3.93,3.59,0,.34-.02.71-.04,1.12-.27-.02-.67-.02-1.1-.02s-.87,0-1.16.02c.02-.34.02-.69.02-1.03,0-1.07-.36-1.56-1.61-1.56-1.09,0-1.49.47-1.49,1.32,0,.92.27,1.7,1.99,2.41,2.34.92,3.48,2.26,3.48,4.49s-1.18,3.64-3.89,3.64c-3.01,0-4.11-1.41-4.11-3.68,0-.49,0-.8.04-1.12.27.04.69.05,1.14.05.51,0,.96-.02,1.3-.04v.67Z" style="stroke-width:0px;"/><path d="M302.34,105.68c-.05,1.81-.05,3.91-.05,6.79s0,4.84.05,6.79h-2.61c.04-1.49.05-4,.05-5.6-.53-.02-1.12-.02-1.7-.02s-1.18,0-1.7.02c0,1.59.02,4.11.05,5.6h-2.59c.05-1.96.05-3.91.05-6.79s0-4.98-.05-6.79h2.59c-.04,1.39-.05,4.04-.05,5.69.52.02,1.12.02,1.7.02s1.18,0,1.7-.02c0-1.65-.02-4.29-.05-5.69h2.61Z" style="stroke-width:0px;"/><path d="M316.43,105.68c-.56,2.92-1.83,11.57-2.16,13.58-.34-.02-.83-.04-1.38-.04-.78,0-1.41.02-1.7.04-.14-1.1-.54-4.51-.83-7.15-.15-1.12-.25-2.52-.36-3.66h-.02c-.09,1.14-.24,2.57-.4,3.69-.36,2.63-.8,5.89-.96,7.12-.4-.02-1.07-.04-1.61-.04-.69,0-1.1.02-1.36.04-.4-2.17-1.58-10.69-2.17-13.58h2.77c.05,1.14.53,5.52.89,8.66.11,1.05.18,1.99.25,2.74h.11c.07-.76.16-1.68.29-2.77.33-2.99.85-7.21.92-8.62.43.02,1.16.02,1.59.02.47,0,1.03,0,1.45-.02.11,1.32.53,5.58.91,8.68.16,1.16.24,2.08.31,2.81h.09c.05-.74.13-1.65.25-2.81.33-3.04.76-7.25.87-8.68h2.25Z" style="stroke-width:0px;"/><path d="M323.21,119.27c-.05-.53-.24-1.74-.49-3.22h-3.39c-.25,1.43-.45,2.63-.53,3.22h-2.59c.81-3.35,2.54-11.9,2.9-13.58h3.91c.4,1.7,2.1,10.18,2.99,13.58h-2.81ZM320.99,107.08c-.11.65-.29,1.56-.51,2.66-.24,1.32-.53,2.9-.8,4.38.49.02.98.02,1.34.02.38,0,.87,0,1.36-.02-.25-1.5-.54-3.1-.8-4.42-.22-1.05-.38-1.97-.51-2.63h-.09Z" style="stroke-width:0px;"/><path d="M329.64,105.68c-.05,1.05-.07,3.64-.07,6.74,0,1.58.02,3.42.02,4.58.92,0,2.23,0,3.3-.04v2.3h-5.81c0-.83.04-3.89.04-6.79,0-3.33.02-5.52-.04-6.79h2.57Z" style="stroke-width:0px;"/><path d="M342.75,105.68c-.87,1.61-2.64,4.91-3.64,6.88.34.49.78,1.1,1.21,1.81,1.38,2.32,2.16,4.22,2.54,4.89h-2.7c-.34,0-.51-.11-.69-.42-.8-1.67-1.9-3.98-2.72-5.34h-.07c0,2.08,0,4.18.05,5.76h-2.59c.04-1.83.05-3.91.05-6.79s-.02-5.02-.05-6.79h2.59c-.07,1.65-.05,4.17-.05,6.39.43-.63.85-1.27,1.27-2.01.89-1.68,1.47-3.31,1.85-4.38h2.95Z" style="stroke-width:0px;"/><path d="M350.65,105.68c-.81,2.14-2.55,7.46-3.13,9.42,0,2.1.02,3.57.04,4.18-.34-.04-.85-.04-1.25-.04s-.92,0-1.29.04c.04-.62.05-2.06.05-4.18-.58-2.03-2.34-7.57-3.15-9.42h2.88c.18.81.69,3.24,1.1,5.11.16.67.31,1.38.42,1.92h.15c.09-.53.24-1.21.42-1.87.45-1.92,1.03-4.38,1.18-5.16h2.59Z" style="stroke-width:0px;"/><path d="M352.04,117.76c0,1.05-.45,1.61-1.36,1.61s-1.36-.56-1.36-1.61.49-1.59,1.36-1.59,1.36.54,1.36,1.59Z" style="stroke-width:0px;"/><path d="M360.97,114.45c0,3.17-1.41,5.02-4.04,5.02-2.81,0-4.42-1.79-4.42-7.06,0-4.94,1.39-6.92,4.46-6.92,2.9,0,3.97,1.79,3.97,4.55,0,.34-.02.74-.04,1.16-.42-.02-.83-.02-1.23-.02s-.78,0-1.18.02c0-.36.02-.65.02-.91,0-2.05-.6-2.5-1.65-2.5-1.18,0-1.79.65-1.79,4.56s.63,4.8,1.87,4.8c1.09,0,1.61-.8,1.61-2.66,0-.2-.02-.43-.02-.69.42.02.8.02,1.21.02s.81,0,1.23-.02v.65Z" style="stroke-width:0px;"/><path d="M366.73,119.47c-2.79,0-4.49-2.12-4.49-7.21s1.83-6.77,4.49-6.77,4.53,1.68,4.53,6.77-1.76,7.21-4.53,7.21ZM368.7,112.37c0-3.57-.72-4.58-1.96-4.58s-1.99,1-1.99,4.58.72,4.8,1.99,4.8,1.96-1.23,1.96-4.8Z" style="stroke-width:0px;"/><path d="M381.18,119.27c.05-2.52.07-4.29.09-6.92,0-1.27.09-2.79.13-4.18h-.05c-.22,1.29-.45,2.66-.69,3.53l-1.96,7.57h-1.07l-1.96-7.68c-.24-.98-.49-2.28-.69-3.46h-.05c.04,1.47.11,2.84.13,4.2,0,2.66.04,4.44.07,6.94h-2.17c.04-1.96.04-3.93.04-6.81s0-5-.02-6.77h3.21c.34,1.25,1.01,4,1.74,6.57.14.62.31,1.48.45,2.3h.07c.15-.83.33-1.67.49-2.28.69-2.57,1.39-5.34,1.74-6.59h2.95c-.04,1.77-.04,3.8-.04,6.77s.02,4.85.05,6.81h-2.46Z" style="stroke-width:0px;"/><path d="M342.51,63.63c2.4,0,2.69,0,3.64.05.88.04,1.35.19,1.67.31.42.16.72.36,1.03.67.31.31.51.61.67,1.03.12.32.27.79.31,1.67.04.95.05,1.23.05,3.64s0,2.69-.05,3.64c-.04.88-.19,1.35-.31,1.67-.16.42-.36.72-.67,1.03-.31.31-.61.51-1.03.67-.32.12-.79.27-1.67.31-.95.04-1.23.05-3.64.05s-2.69,0-3.64-.05c-.88-.04-1.35-.19-1.67-.31-.42-.16-.72-.36-1.03-.67-.31-.31-.51-.61-.67-1.03-.12-.32-.27-.79-.31-1.67-.04-.95-.05-1.23-.05-3.64s0-2.69.05-3.64c.04-.88.19-1.35.31-1.67.16-.42.36-.72.67-1.03.31-.31.61-.51,1.03-.67.32-.12.79-.27,1.67-.31.95-.04,1.23-.05,3.64-.05M342.51,62.01c-2.44,0-2.75.01-3.71.05-.96.04-1.61.2-2.18.42-.59.23-1.09.54-1.59,1.04-.5.5-.81,1-1.04,1.59-.22.57-.37,1.23-.42,2.18-.04.96-.05,1.27-.05,3.71s.01,2.75.05,3.71c.04.96.2,1.61.42,2.18.23.59.54,1.09,1.04,1.59.5.5,1,.81,1.59,1.04.57.22,1.23.37,2.18.42.96.04,1.27.05,3.71.05s2.75-.01,3.71-.05c.96-.04,1.61-.2,2.18-.42.59-.23,1.09-.54,1.59-1.04.5-.5.81-1,1.04-1.59.22-.57.37-1.23.42-2.18.04-.96.05-1.27.05-3.71s-.01-2.75-.05-3.71c-.04-.96-.2-1.61-.42-2.18-.23-.59-.54-1.09-1.04-1.59-.5-.5-1-.81-1.59-1.04-.57-.22-1.23-.37-2.18-.42-.96-.04-1.27-.05-3.71-.05h0Z" style="fill:#fffae3; stroke-width:0px;"/><path d="M342.51,66.39c-2.55,0-4.62,2.07-4.62,4.62s2.07,4.62,4.62,4.62,4.62-2.07,4.62-4.62-2.07-4.62-4.62-4.62ZM342.51,74.01c-1.66,0-3-1.34-3-3s1.34-3,3-3,3,1.34,3,3-1.34,3-3,3Z" style="fill:#fffae3; stroke-width:0px;"/><circle cx="347.31" cy="66.21" r="1.08" style="fill:#fffae3; stroke-width:0px;"/><path d="M382.61,69.04c.24-.27.43-.53.67-.76.75-.7,1.63-1.06,2.66-1.05.57,0,1.13.05,1.67.2,1.25.36,1.97,1.22,2.32,2.44.26.91.31,1.85.31,2.8,0,1.99,0,3.97,0,5.96,0,.19-.05.23-.23.23-1.02,0-2.05,0-3.07,0-.18,0-.22-.05-.22-.22,0-1.89,0-3.78,0-5.67,0-.47-.03-.95-.16-1.41-.24-.85-.85-1.28-1.74-1.23-1.21.06-1.84.67-2,1.9-.04.29-.05.59-.05.89,0,1.84,0,3.68,0,5.52,0,.18-.05.24-.23.24-1.03,0-2.06,0-3.09,0-.17,0-.21-.04-.21-.21,0-3.64,0-7.28,0-10.92,0-.18.06-.22.23-.22.98,0,1.96,0,2.94,0,.18,0,.23.06.22.23-.01.43,0,.87,0,1.31Z" style="fill:#fffae3; stroke-width:0px;"/><path d="M377,73.2c0,1.8,0,3.6,0,5.4,0,.2-.05.26-.26.26-1.02-.01-2.05,0-3.07,0-.16,0-.21-.04-.21-.21,0-3.65,0-7.29,0-10.94,0-.15.04-.2.2-.2,1.04,0,2.08,0,3.11,0,.2,0,.23.08.23.25,0,1.82,0,3.63,0,5.45Z" style="fill:#fffae3; stroke-width:0px;"/><path d="M377.28,63.9c0,1.13-.92,2.05-2.04,2.05-1.11,0-2.04-.92-2.04-2.03,0-1.13.92-2.05,2.05-2.05,1.12,0,2.04.92,2.04,2.03Z" style="fill:#fffae3; stroke-width:0px;"/><path d="M67.47,88.91c1.05-4.13.53-6.38-4.2-8.25-9.23-3.6-10.5-8.93-8.03-18.76,2.63-10.73,8.25-15.23,19.73-15.23,13.13,0,16.13,5.55,13.88,14.41-.45,1.73-.98,3.6-1.5,5.63-1.88-.15-4.95-.3-7.5-.3-1.88,0-3.53.08-4.58.08.38-1.35.75-2.63.98-3.75.68-2.85.23-4.28-2.33-4.28-2.1,0-3.3,1.13-3.9,3.53-.9,3.68-.68,5.85,4.43,8.25,8.1,3.6,10.5,8.25,7.88,18.83-2.63,10.65-7.13,15.53-19.51,15.53-13.73,0-16.73-6.08-14.56-14.48.53-2.03,1.05-3.9,1.65-6,2.1.15,4.95.3,7.95.3,1.65,0,3.3,0,4.43-.08-.45,1.28-.75,2.4-.98,3.3-.83,3.45-.45,5.03,2.18,5.03,2.25,0,3.3-1.13,3.98-3.75Z" style="fill:#ff950a; stroke-width:0px;"/><path d="M70.27,29.87c-.04.68.11.91.64.94.5.03.67-.18.7-.62.03-.56-.14-.97-.93-1.31-1.42-.61-1.78-1.34-1.72-2.59.07-1.31.81-1.95,2.31-1.87,1.66.09,2.17.74,2.1,2.07-.01.21-.03.43-.06.68-.2-.02-.51-.05-.79-.06-.25-.01-.48-.02-.63-.02.02-.19.03-.36.04-.54.03-.49-.12-.74-.64-.77-.46-.02-.64.19-.67.59-.04.49.08.88.93,1.27,1.23.56,1.75,1.27,1.68,2.58-.07,1.35-.73,2.04-2.31,1.95-1.72-.09-2.24-.82-2.18-2.11.01-.27.03-.48.07-.71.21.03.51.07.83.08.25.01.48.02.65.01l-.02.41Z" style="fill:#ff950a; stroke-width:0px;"/><path d="M80.95,25.92c-.22,1-.45,2.12-.76,3.69-.31,1.57-.51,2.63-.7,3.7l-1.7-.34c.16-.77.41-1.99.6-2.87-.23-.04-.46-.09-.71-.14-.24-.05-.47-.09-.7-.14-.18.89-.41,2.1-.54,2.88l-1.7-.34c.24-1.06.45-2.12.76-3.69.31-1.57.53-2.69.7-3.7l1.7.34c-.17.74-.43,2-.61,2.9.22.05.46.1.7.15.25.05.48.1.71.13.17-.91.42-2.17.55-2.91l1.7.34Z" style="fill:#ff950a; stroke-width:0px;"/><path d="M90.18,29.1c-.86,1.5-3.15,5.77-3.65,6.67-.21-.09-.53-.22-.88-.36-.5-.19-.85-.31-1.01-.37.13-.52.54-2.05.9-3.33.17-.61.41-1.37.61-2.01h-.04c-.28.6-.62,1.33-.92,1.89-.61,1.18-1.32,2.54-1.59,3.05-.23-.1-.6-.25-.95-.38-.45-.17-.72-.26-.87-.31.24-1.11,1.39-5.71,1.71-7.41l1.67.64c-.18.56-.8,2.65-1.21,4.19-.15.51-.31,1.02-.42,1.44l.05.02c.2-.4.42-.88.66-1.36.7-1.38,1.66-3.26,1.94-3.9.24.1.65.26.9.35.25.1.62.24.85.31-.19.61-.8,2.67-1.2,4.21-.15.56-.3,1.06-.42,1.47l.05.02c.19-.4.4-.87.66-1.38.7-1.4,1.62-3.28,1.91-3.94l1.27.48Z" style="fill:#ff950a; stroke-width:0px;"/><path d="M91.16,38.29c.13-.26.37-.81.67-1.49l-.63-.37-.65-.38c-.44.57-.79,1.05-.97,1.32l-1.48-.86c1.27-1.44,4.32-5.13,4.92-5.86l2.37,1.37c-.33.91-2,5.36-2.59,7.21l-1.62-.94ZM92.35,35.58c.31-.75.63-1.53.9-2.21.16-.45.35-.92.49-1.27l-.05-.03c-.23.3-.55.69-.87,1.06-.45.58-.97,1.23-1.46,1.86.19.12.36.22.5.3l.5.29Z" style="fill:#ff950a; stroke-width:0px;"/><path d="M99.92,35.19c-.36.43-1.29,1.62-2.3,2.94-.4.53-.89,1.16-1.24,1.63.34.26.8.6,1.21.89-.17.21-.36.45-.53.68-.19.25-.38.5-.55.73l-2.58-1.97c.3-.39,1.34-1.7,2.31-2.97,1.07-1.4,1.86-2.43,2.26-3.01l1.41,1.08Z" style="fill:#ff950a; stroke-width:0px;"/><path d="M106.49,41.18c-1.01.4-2.82,1.29-3.92,1.47.04.4-.08.83-.27,1.32-.46,1.26-.95,2.18-1.1,2.57l-1.2-1.19c-.15-.15-.17-.26-.08-.45.44-.89.99-2.06,1.21-2.81l-.06-.06c-.81.81-1.57,1.6-2.17,2.22l-1.23-1.23c.74-.72,1.54-1.51,2.68-2.65s1.93-1.96,2.63-2.69l1.23,1.23c-.67.65-1.61,1.57-2.46,2.43l.03.03c.38-.11.76-.24,1.14-.38.99-.45,1.74-.86,2.23-1.14l1.33,1.32Z" style="fill:#ff950a; stroke-width:0px;"/><path d="M110.49,46.18c-1.09.39-4.03,1.61-5,2.03-.93.72-1.58,1.25-1.84,1.47-.15-.23-.39-.54-.58-.78-.19-.25-.44-.56-.62-.76.27-.19.95-.7,1.88-1.42.68-.87,2.62-3.45,3.19-4.35l1.13,1.45c-.3.31-1.18,1.25-1.92,2.05-.26.29-.56.61-.8.87l.04.05c.31-.16.69-.39,1.04-.55.97-.52,2.14-1.11,2.49-1.33l.99,1.28Z" style="fill:#ff950a; stroke-width:0px;"/><path d="M110.22,51.2l.54.94-.69.29c-.17.07-.36.14-.59.2.12.08.19.13.23.15.13.08.23.15.3.19l.62.43-.73.81-.51-.58c-.09-.11-.21-.27-.35-.51-.03.23-.08.42-.12.57l-.23.72-1.01-.44.39-.64c.06-.09.17-.26.35-.5-.32.04-.53.06-.61.05h-.76s.12-1.11.12-1.11l.75.2c.21.06.4.12.56.2-.06-.14-.14-.32-.22-.56l-.27-.72,1.07-.21.07.75c0,.08,0,.28,0,.61.21-.19.37-.33.47-.41l.59-.45Z" style="fill:#ff950a; stroke-width:0px;"/><path d="M116.27,57.07c.64,1.64.36,2.61-2.43,3.69-2.93,1.14-3.93.76-4.61-.99l-.81-2.08c.98-.36,2.02-.75,3.51-1.33,1.49-.58,2.62-1.03,3.51-1.39l.82,2.11ZM113.15,59.23c1.87-.73,1.97-1.07,1.72-1.71-.06-.15-.11-.29-.18-.43-.64.23-1.43.53-2.16.82-.92.36-1.55.6-2.02.79.04.14.1.28.15.43.26.67.58.84,2.49.1Z" style="fill:#ff950a; stroke-width:0px;"/><path d="M118.85,65.89c-.18.03-.49.1-.74.16-.26.06-.62.14-.8.2-.18-.79-.35-1.58-.5-2.21l-1.39.32c.18.75.35,1.5.52,2.13-.31.07-1.04.23-1.39.32-.13-.63-.29-1.39-.47-2.14l-1.46.34c.15.64.35,1.45.53,2.2-.21.04-.56.12-.85.19-.25.06-.6.14-.8.2l-.9-3.84c.98-.2,2.11-.46,3.67-.83,1.56-.36,2.75-.64,3.66-.89l.9,3.84Z" style="fill:#ff950a; stroke-width:0px;"/><path d="M114.08,70.47c-.68.07-.88.25-.83.77.05.5.27.64.71.6.56-.05.94-.28,1.15-1.11.39-1.49,1.06-1.96,2.3-2.08,1.3-.12,2.05.51,2.19,2.01.16,1.65-.41,2.25-1.74,2.38-.21.02-.43.03-.68.05,0-.2-.03-.51-.06-.79-.02-.25-.05-.48-.07-.63.19,0,.36-.02.54-.04.49-.05.71-.23.66-.75-.04-.46-.28-.61-.68-.57-.49.04-.86.2-1.11,1.11-.37,1.3-1,1.91-2.31,2.04-1.34.13-2.12-.42-2.27-1.99-.16-1.71.48-2.34,1.76-2.46.27-.03.48-.04.71-.04,0,.21,0,.51.04.83.02.25.05.48.08.65l-.41.04Z" style="fill:#ff950a; stroke-width:0px;"/><path d="M112.21,75.35c1.02.04,2.17.06,3.76.08,1.61.03,2.75.05,3.77.04l-.03,1.75c-1-.04-2.15-.06-3.75-.08-1.6-.03-2.74-.05-3.78-.04l.03-1.75Z" style="fill:#ff950a; stroke-width:0px;"/><path d="M114.68,81.63c.13.03.44.07.6.09.25.03.48.06.64.07-.06.38-.11.77-.15,1.06-.05.36-.11.84-.15,1.32-2.98-.27-4.16-.77-3.89-2.83.23-1.76,1.45-2.34,4.25-1.98,2.78.35,3.65,1.25,3.42,3.02-.22,1.71-1.15,2.17-2.58,1.98-.17-.02-.34-.04-.53-.09.04-.21.09-.51.13-.81.04-.32.07-.61.09-.82.15.03.29.05.4.06.76.1,1.04-.1,1.09-.52.08-.58-.31-.9-2.24-1.15-1.93-.25-2.49-.09-2.58.56-.07.51.25.72,1.41.88l.1-.84Z" style="fill:#ff950a; stroke-width:0px;"/><path d="M117.11,92.06c-.58-.18-2.07-.62-3.6-1.06-1.61-.46-2.7-.77-3.64-1.02l.48-1.68c.71-.02,2.18-.12,3.41-.25.67-.02,1.36.02,2.05.08v-.02c-.78-.17-1.48-.34-2.1-.51-1.51-.42-2.53-.7-2.94-.81l.41-1.43c.96.27,2.07.6,3.62,1.05,1.54.44,2.69.77,3.62,1.03l-.53,1.86c-.53-.02-2.12.12-3.54.17-.51.02-1.1-.01-1.7-.07h0c.67.15,1.3.3,1.88.46,1,.29,2.3.63,2.97.79l-.4,1.41Z" style="fill:#ff950a; stroke-width:0px;"/><path d="M112.71,95.21l-.45.99-.64-.39c-.16-.09-.32-.22-.51-.37,0,.14,0,.23.01.28.01.16.02.27.02.35v.75s-1.07-.12-1.07-.12l.17-.75c.03-.14.1-.33.21-.58-.21.11-.39.18-.54.23l-.72.23-.23-1.08.75-.05c.11,0,.31,0,.61,0-.22-.24-.35-.4-.4-.46l-.45-.61.98-.55.27.73c.08.2.13.4.17.57.07-.13.18-.3.33-.5l.43-.64.79.75-.57.49c-.06.05-.23.17-.5.36.28.06.48.11.61.15l.71.22Z" style="fill:#ff950a; stroke-width:0px;"/><path d="M107.47,99.82c-.57-.37-.85-.36-1.13.08-.27.42-.18.67.19.91.47.31.91.36,1.59-.15,1.23-.93,2.05-.88,3.1-.2,1.1.71,1.29,1.67.47,2.94-.9,1.39-1.72,1.51-2.84.79-.18-.11-.36-.24-.56-.39.12-.16.29-.42.45-.66.14-.21.26-.41.33-.54.15.11.3.2.45.3.41.27.7.26.99-.18.25-.39.16-.65-.18-.87-.41-.28-.8-.37-1.56.18-1.09.79-1.97.88-3.07.17-1.13-.73-1.4-1.65-.55-2.97.93-1.44,1.83-1.53,2.91-.84.23.15.4.27.58.41-.13.17-.31.41-.49.68-.14.21-.26.41-.34.56l-.35-.22Z" style="fill:#ff950a; stroke-width:0px;"/><path d="M105.61,111.02c-.76-.69-1.62-1.45-2.82-2.49-1.21-1.05-2.03-1.75-2.86-2.45l1.13-1.3c.58.52,1.52,1.35,2.19,1.95.15-.17.31-.36.47-.55.16-.18.32-.36.47-.54-.68-.59-1.62-1.4-2.23-1.9l1.13-1.3c.8.73,1.62,1.45,2.82,2.49,1.21,1.05,2.07,1.8,2.86,2.45l-1.13,1.3c-.56-.51-1.52-1.36-2.22-1.97-.16.17-.32.35-.48.53-.17.19-.32.37-.47.55.7.6,1.68,1.44,2.26,1.92l-1.13,1.3Z" style="fill:#ff950a; stroke-width:0px;"/><path d="M98.27,117.46c-.87-1.49-3.45-5.59-3.99-6.48.18-.14.46-.35.74-.58.41-.34.69-.58.82-.7.38.37,1.52,1.48,2.45,2.43.45.45.99,1.03,1.44,1.52l.03-.03c-.4-.55-.86-1.21-1.2-1.75-.72-1.11-1.55-2.41-1.86-2.9.2-.15.52-.4.81-.64.37-.31.58-.49.7-.6.85.76,4.27,4.03,5.59,5.16l-1.38,1.14c-.4-.44-1.91-2.01-3.04-3.13-.37-.39-.74-.77-1.04-1.08l-.04.03c.25.37.56.8.86,1.25.85,1.29,2.01,3.06,2.43,3.63-.21.16-.55.44-.75.6-.21.17-.51.42-.69.58-.44-.47-1.93-2.02-3.06-3.13-.41-.4-.77-.78-1.07-1.1l-.04.03c.26.36.56.78.88,1.26.87,1.3,2.05,3.04,2.47,3.61l-1.05.86Z" style="fill:#ff950a; stroke-width:0px;"/><path d="M89.79,113.77c.16.24.52.72.97,1.32l.63-.37.65-.38c-.28-.66-.52-1.21-.66-1.5l1.48-.86c.62,1.82,2.32,6.29,2.66,7.18l-2.36,1.38c-.63-.74-3.67-4.39-4.98-5.82l1.62-.94ZM91.56,116.14c.5.64,1.02,1.3,1.48,1.87.32.36.63.76.86,1.06l.05-.03c-.14-.35-.33-.82-.49-1.28-.28-.68-.59-1.45-.89-2.19-.2.1-.37.2-.51.29l-.49.29Z" style="fill:#ff950a; stroke-width:0px;"/><path d="M88.15,122.92c-.2-.53-.77-1.92-1.42-3.46-.26-.61-.57-1.34-.81-1.89-.4.17-.92.4-1.37.61-.1-.25-.21-.53-.33-.8-.12-.29-.25-.58-.36-.84l2.99-1.26c.19.45.81,2,1.44,3.48.69,1.63,1.19,2.82,1.49,3.46l-1.64.69Z" style="fill:#ff950a; stroke-width:0px;"/><path d="M79.68,125.65c.15-1.07.28-3.09.67-4.14-.37-.16-.68-.48-1.02-.89-.87-1.02-1.42-1.91-1.69-2.23l1.63-.45c.2-.06.31-.02.43.15.55.83,1.3,1.88,1.84,2.44l.08-.02c-.3-1.1-.6-2.16-.85-2.99l1.68-.46c.26,1,.54,2.09.97,3.64s.74,2.65,1.03,3.63l-1.68.46c-.23-.91-.57-2.18-.89-3.34h-.04c-.09.39-.17.79-.24,1.19-.1,1.08-.12,1.94-.12,2.5l-1.8.5Z" style="fill:#ff950a; stroke-width:0px;"/><path d="M73.33,126.63c.21-1.13.61-4.29.73-5.35-.16-1.16-.3-2-.35-2.32.27-.02.66-.07.97-.12.31-.04.71-.1.97-.16.03.33.13,1.17.3,2.34.42,1.03,1.68,3.99,2.18,4.93l-1.82.25c-.12-.41-.49-1.65-.82-2.69-.12-.37-.25-.79-.36-1.13h-.06c-.01.35-.01.8-.04,1.18-.04,1.1-.1,2.41-.09,2.82l-1.6.22Z" style="fill:#ff950a; stroke-width:0px;"/><path d="M69.1,123.91l-1.08-.02.1-.74c.02-.18.07-.38.13-.61-.13.06-.21.1-.25.12-.14.07-.24.12-.32.16l-.69.31-.32-1.04.76-.14c.14-.02.34-.04.61-.04-.18-.15-.32-.28-.43-.4l-.5-.56.89-.65.35.67c.05.1.13.28.25.56.13-.3.22-.48.26-.55l.38-.66.9.68-.56.55c-.16.15-.31.28-.46.39.15.02.35.05.59.1l.76.14-.37,1.03-.68-.32c-.07-.03-.25-.14-.53-.31.06.28.09.48.11.62l.09.74Z" style="fill:#ff950a; stroke-width:0px;"/><path d="M61.04,126.24c-1.74-.26-2.44-.97-2-3.93.46-3.11,1.29-3.79,3.14-3.51l2.21.33c-.17,1.03-.35,2.13-.58,3.71s-.4,2.78-.53,3.74l-2.23-.33ZM60.71,122.46c-.3,1.99-.04,2.24.64,2.34.16.02.31.05.46.06.12-.67.25-1.51.36-2.28.15-.97.24-1.64.31-2.15-.15-.03-.29-.05-.45-.08-.71-.11-1.02.09-1.32,2.11Z" style="fill:#ff950a; stroke-width:0px;"/><path d="M52.11,124.12c.06-.17.15-.48.22-.72.08-.26.18-.61.22-.79.78.24,1.54.48,2.16.66l.4-1.37c-.74-.22-1.47-.44-2.1-.6.09-.31.31-1.02.41-1.37.61.2,1.35.43,2.09.65l.43-1.43c-.63-.19-1.43-.41-2.17-.62.07-.2.17-.55.26-.83.07-.25.17-.59.22-.79l3.78,1.12c-.31.95-.64,2.06-1.1,3.6-.45,1.53-.8,2.71-1.04,3.62l-3.78-1.12Z" style="fill:#ff950a; stroke-width:0px;"/><path d="M50.47,117.7c.28-.62.22-.89-.25-1.11-.46-.21-.69-.08-.87.32-.23.51-.22.96.39,1.55,1.1,1.08,1.18,1.9.67,3.03-.54,1.19-1.46,1.53-2.83.91-1.51-.68-1.75-1.47-1.21-2.69.09-.19.19-.39.3-.62.18.09.46.23.72.34.23.1.44.2.58.25-.09.17-.16.33-.23.49-.2.45-.15.74.32.95.42.19.67.06.83-.31.21-.45.25-.85-.41-1.52-.94-.96-1.17-1.81-.63-3.02.55-1.23,1.42-1.63,2.86-.99,1.57.7,1.79,1.58,1.27,2.75-.11.25-.21.44-.32.64-.18-.1-.45-.25-.74-.38-.23-.1-.44-.2-.6-.25l.17-.38Z" style="fill:#ff950a; stroke-width:0px;"/><path d="M47.17,113.66c-.54.87-1.12,1.86-1.93,3.23-.82,1.38-1.4,2.37-1.9,3.25l-1.51-.89c.53-.85,1.11-1.84,1.93-3.23.81-1.38,1.4-2.36,1.9-3.26l1.51.89Z" style="fill:#ff950a; stroke-width:0px;"/><path d="M40.51,112.69c-.09.1-.28.35-.37.47-.15.2-.29.38-.38.52-.3-.24-.61-.48-.84-.65-.29-.22-.67-.51-1.07-.79,1.72-2.46,2.74-3.22,4.39-1.96,1.42,1.08,1.31,2.43-.4,4.67-1.69,2.24-2.9,2.54-4.32,1.46-1.38-1.05-1.31-2.08-.44-3.23.1-.14.21-.27.34-.41.16.14.4.33.64.52.26.19.49.36.67.48-.1.11-.18.23-.25.31-.46.61-.43.95-.1,1.2.46.35.94.18,2.12-1.37s1.32-2.11.8-2.51c-.41-.31-.75-.14-1.46.78l.68.5Z" style="fill:#ff950a; stroke-width:0px;"/><path d="M30.24,109.59c.44-.41,1.57-1.48,2.71-2.6,1.2-1.17,2.02-1.96,2.69-2.65l1.22,1.25c-.34.63-.98,1.95-1.48,3.08-.32.59-.7,1.17-1.09,1.73h.01c.54-.58,1.03-1.1,1.49-1.56,1.12-1.1,1.87-1.84,2.16-2.14l1.04,1.07c-.71.69-1.56,1.5-2.71,2.62-1.15,1.11-2,1.95-2.69,2.63l-1.35-1.39c.28-.45.95-1.9,1.61-3.15.23-.45.56-.95.91-1.44h-.01c-.45.51-.89.98-1.32,1.41-.75.73-1.69,1.68-2.16,2.19l-1.02-1.05Z" style="fill:#ff950a; stroke-width:0px;"/><path d="M29.68,104.21l-.63-.88.65-.36c.16-.09.35-.17.57-.26-.12-.06-.21-.11-.25-.12-.14-.07-.25-.12-.31-.16l-.66-.37.64-.88.57.52c.1.1.24.25.4.47.01-.23.03-.43.06-.58l.15-.74,1.05.33-.33.68c-.05.1-.15.27-.3.53.32-.07.52-.11.6-.12l.75-.09v1.12s-.78-.12-.78-.12c-.21-.04-.41-.08-.58-.14.08.13.17.31.27.53l.34.69-1.05.32-.15-.73c-.02-.08-.04-.28-.06-.61-.19.21-.33.36-.43.45l-.54.51Z" style="fill:#ff950a; stroke-width:0px;"/><path d="M28.27,97.37c.61-.32.73-.56.49-1.02-.23-.45-.49-.49-.89-.29-.5.26-.77.61-.65,1.46.2,1.53-.25,2.21-1.36,2.79-1.16.6-2.09.29-2.79-1.04-.77-1.47-.46-2.24.72-2.86.19-.1.39-.19.62-.3.08.18.22.46.35.71.12.22.22.43.3.56-.17.08-.33.16-.49.24-.44.23-.58.48-.33.94.21.41.49.46.84.27.44-.22.72-.51.62-1.44-.14-1.34.21-2.15,1.38-2.75,1.19-.62,2.12-.4,2.85,1,.79,1.52.43,2.35-.71,2.94-.24.12-.43.21-.65.3-.08-.2-.2-.47-.35-.76-.12-.22-.22-.43-.32-.57l.37-.19Z" style="fill:#ff950a; stroke-width:0px;"/><path d="M19.46,90.2c.97-.32,2.06-.69,3.57-1.21,1.51-.53,2.53-.89,3.55-1.27l.57,1.63c-.74.25-1.92.65-2.78.94.08.22.16.45.24.68.08.23.16.46.23.67.85-.3,2.02-.71,2.76-1l.57,1.63c-1.04.33-2.06.69-3.57,1.21-1.51.53-2.59.9-3.55,1.27l-.57-1.63c.72-.23,1.94-.64,2.81-.95-.07-.22-.15-.45-.23-.68-.08-.24-.16-.46-.25-.68-.87.31-2.08.74-2.79,1.01l-.57-1.63Z" style="fill:#ff950a; stroke-width:0px;"/><path d="M17.54,80.64c1.73-.02,6.56-.21,7.6-.24.03.23.08.57.14.93.09.53.16.89.2,1.06-.52.15-2.04.58-3.33.92-.61.16-1.39.35-2.04.49v.04c.68-.07,1.48-.15,2.12-.17,1.32-.07,2.86-.14,3.43-.17.03.25.09.65.15,1.01.08.48.14.75.17.91-1.08.35-5.62,1.7-7.25,2.28l-.3-1.76c.58-.13,2.69-.66,4.23-1.08.52-.13,1.04-.26,1.46-.37v-.05c-.45.03-.98.08-1.52.12-1.54.1-3.65.22-4.35.3-.03-.26-.11-.69-.15-.95-.04-.27-.11-.65-.16-.89.63-.15,2.71-.67,4.23-1.1.55-.15,1.06-.28,1.48-.38v-.05c-.45.04-.96.1-1.53.13-1.56.11-3.65.27-4.36.35l-.22-1.34Z" style="fill:#ff950a; stroke-width:0px;"/><path d="M24.94,75.08c-.29.02-.88.1-1.62.2v.73s.02.75.02.75c.71.08,1.31.14,1.63.15l.03,1.71c-1.88-.35-6.62-1.05-7.55-1.19l-.05-2.73c.95-.19,5.62-1.05,7.51-1.49l.03,1.87ZM22.02,75.46c-.8.12-1.63.25-2.35.37-.47.1-.97.18-1.34.23v.06c.37.04.88.12,1.36.2.72.09,1.55.19,2.35.29,0-.22,0-.42,0-.58v-.57Z" style="fill:#ff950a; stroke-width:0px;"/><path d="M17.82,69.15c.56.09,2.05.29,3.71.48.66.08,1.45.17,2.04.23.05-.43.11-1,.15-1.49.27.04.57.08.86.11.31.04.63.07.91.1l-.38,3.22c-.49-.06-2.14-.29-3.74-.48-1.76-.21-3.03-.36-3.75-.42l.21-1.77Z" style="fill:#ff950a; stroke-width:0px;"/><path d="M19.64,60.45c.86.66,2.54,1.78,3.26,2.63.32-.24.75-.36,1.27-.44,1.32-.25,2.36-.29,2.78-.36l-.42,1.64c-.05.2-.13.28-.34.3-.99.07-2.28.2-3.03.39l-.02.08c1.11.28,2.17.54,3.02.73l-.43,1.68c-1-.27-2.09-.56-3.64-.96s-2.67-.67-3.66-.9l.43-1.68c.9.25,2.17.58,3.34.88v-.04c-.27-.27-.58-.53-.9-.79-.89-.62-1.63-1.07-2.11-1.35l.46-1.81Z" style="fill:#ff950a; stroke-width:0px;"/><path d="M21.93,54.45c.88.74,3.43,2.66,4.28,3.29,1.09.44,1.88.73,2.2.84-.12.25-.26.61-.38.9-.12.29-.26.66-.35.92-.3-.14-1.08-.46-2.18-.9-1.1-.15-4.31-.52-5.37-.55l.68-1.71c.41.1,1.68.39,2.74.62.38.08.81.17,1.16.25l.02-.06c-.29-.18-.68-.4-1-.61-.94-.58-2.04-1.28-2.41-1.48l.6-1.5Z" style="fill:#ff950a; stroke-width:0px;"/><path d="M26.41,52.13l.54-.94.6.45c.15.11.3.24.47.41,0-.14.01-.23.01-.28,0-.16,0-.27.02-.35l.06-.75,1.07.22-.24.73c-.05.13-.13.32-.26.56.22-.09.4-.15.56-.18l.73-.17.13,1.1-.75-.02c-.11,0-.31-.02-.61-.05.2.26.32.43.35.5l.39.65-1.03.46-.21-.75c-.06-.21-.1-.41-.12-.59-.09.12-.21.28-.37.47l-.48.6-.72-.82.61-.44c.06-.05.24-.15.53-.31-.27-.08-.47-.15-.59-.2l-.69-.28Z" style="fill:#ff950a; stroke-width:0px;"/><path d="M28.4,43.97c1.09-1.38,2.06-1.63,4.41.22,2.46,1.95,2.64,3,1.48,4.47l-1.38,1.75c-.81-.66-1.67-1.36-2.93-2.35-1.25-.99-2.21-1.73-2.98-2.32l1.4-1.77ZM31.84,45.56c-1.57-1.25-1.92-1.15-2.34-.61-.1.13-.19.24-.28.37.52.44,1.18.96,1.8,1.45.77.61,1.3,1.03,1.71,1.34.1-.11.19-.22.29-.35.44-.56.43-.93-1.17-2.19Z" style="fill:#ff950a; stroke-width:0px;"/><path d="M34.67,37.28c.12.14.34.37.51.55.19.2.44.46.58.59-.6.55-1.18,1.1-1.65,1.55l.99,1.03c.56-.53,1.11-1.06,1.57-1.53.22.23.73.78.99,1.03-.48.43-1.04.96-1.6,1.49l1.03,1.08c.47-.45,1.07-1.03,1.62-1.58.14.16.39.42.6.64.18.19.42.44.58.59l-2.85,2.73c-.67-.75-1.47-1.58-2.58-2.74-1.1-1.16-1.95-2.04-2.63-2.7l2.85-2.73Z" style="fill:#ff950a; stroke-width:0px;"/><path d="M41.04,39.05c.4.55.66.64,1.08.33.41-.3.41-.56.15-.92-.33-.45-.72-.67-1.54-.43-1.48.42-2.23.08-2.96-.92-.77-1.06-.6-2.02.61-2.91,1.34-.98,2.15-.79,2.93.29.12.17.25.35.39.56-.17.11-.43.29-.65.45-.2.15-.39.28-.51.38-.1-.16-.21-.3-.31-.44-.29-.4-.56-.5-.98-.19-.37.27-.38.55-.14.88.28.4.61.64,1.52.4,1.3-.34,2.15-.12,2.93.95.79,1.09.72,2.04-.56,2.97-1.39,1.01-2.26.78-3.01-.26-.16-.22-.28-.4-.4-.59.18-.11.44-.27.7-.46.2-.15.39-.28.52-.4l.24.33Z" style="fill:#ff950a; stroke-width:0px;"/><path d="M46.2,38.17c-.49-.9-1.06-1.9-1.85-3.28-.8-1.4-1.37-2.39-1.89-3.26l1.52-.87c.48.88,1.05,1.88,1.85,3.27.79,1.39,1.36,2.38,1.89,3.27l-1.52.87Z" style="fill:#ff950a; stroke-width:0px;"/><path d="M50.33,32.86c-.04-.12-.16-.41-.23-.56-.1-.23-.19-.44-.26-.59.36-.14.72-.29.98-.41.33-.14.78-.33,1.21-.54,1.28,2.71,1.44,3.97-.46,4.79-1.64.7-2.76-.06-3.86-2.66-1.11-2.58-.78-3.78.87-4.48,1.59-.68,2.46-.11,3.02,1.22.07.16.13.31.19.5-.2.07-.48.18-.77.3-.3.13-.56.25-.75.34-.05-.14-.1-.27-.15-.37-.3-.7-.61-.84-1-.68-.54.23-.62.72.14,2.52s1.19,2.19,1.79,1.94c.47-.2.5-.58.05-1.66l-.77.34Z" style="fill:#ff950a; stroke-width:0px;"/><path d="M58.12,25.49c.14.59.51,2.1.91,3.65.42,1.63.7,2.73.96,3.66l-1.69.44c-.37-.61-1.2-1.82-1.94-2.82-.35-.57-.67-1.19-.96-1.81h-.02c.25.77.46,1.45.63,2.08.4,1.52.67,2.54.79,2.94l-1.44.37c-.25-.96-.53-2.1-.93-3.65-.4-1.55-.7-2.71-.95-3.65l1.88-.48c.25.46,1.18,1.77,1.94,2.97.28.43.55.96.8,1.51h0c-.22-.66-.41-1.28-.57-1.86-.26-1.01-.62-2.3-.82-2.96l1.42-.37Z" style="fill:#ff950a; stroke-width:0px;"/><path d="M63.04,27.68l1.08-.11v.75c-.01.18-.03.39-.07.62.12-.07.19-.12.23-.15.13-.09.23-.15.3-.19l.65-.39.44,1-.74.23c-.13.04-.34.08-.6.12.2.12.35.24.47.35l.56.5-.81.75-.43-.62c-.06-.09-.17-.26-.31-.53-.1.31-.16.5-.2.58l-.3.7-.97-.57.49-.61c.14-.17.27-.31.41-.44-.15,0-.35,0-.6-.03l-.77-.04.25-1.07.71.24c.07.02.26.11.56.25-.09-.27-.15-.47-.18-.6l-.17-.73Z" style="fill:#ff950a; stroke-width:0px;"/><circle cx="68.58" cy="75.63" r="38.57" style="fill:none; stroke:#000; stroke-miterlimit:10; stroke-width:.95px;"/><circle cx="68.58" cy="75.63" r="56.86" style="fill:none; stroke:#000; stroke-miterlimit:10; stroke-width:.95px;"/><rect x="134.85" y="96.91" width="127.04" height="30.29" rx="15.15" ry="15.15" style="fill:none; stroke:#000; stroke-miterlimit:10;"/><a xlink:href="www.shwalky.com"><rect x="269.83" y="96.91" width="127.04" height="30.29" rx="15.15" ry="15.15" style="fill:none; stroke:#000; stroke-miterlimit:10;"/></a><a xlink:href="www.instagram.com/samwdesign"><rect x="327.36" y="55.86" width="30.29" height="30.29" rx="15.15" ry="15.15" style="fill:none; stroke-width:0px;"/></a><a xlink:href="linkedin.com/samwdesign"><rect x="366.57" y="55.86" width="30.29" height="30.29" rx="15.15" ry="15.15" style="fill:none; stroke-width:0px;"/></a></g></svg>